<?xml version="1.0" encoding="utf-8" standalone="no"?>
<!DOCTYPE svg PUBLIC "-//W3C//DTD SVG 1.1//EN"
  "http://www.w3.org/Graphics/SVG/1.1/DTD/svg11.dtd">
<svg xmlns:xlink="http://www.w3.org/1999/xlink" width="337.578125pt" height="321.95625pt" viewBox="0 0 337.578125 321.95625" xmlns="http://www.w3.org/2000/svg" version="1.1">
 <metadata>
  <rdf:RDF xmlns:dc="http://purl.org/dc/elements/1.1/" xmlns:cc="http://creativecommons.org/ns#" xmlns:rdf="http://www.w3.org/1999/02/22-rdf-syntax-ns#">
   <cc:Work>
    <dc:type rdf:resource="http://purl.org/dc/dcmitype/StillImage"/>
    <dc:date>2024-03-29T14:09:17.957536</dc:date>
    <dc:format>image/svg+xml</dc:format>
    <dc:creator>
     <cc:Agent>
      <dc:title>Matplotlib v3.8.3, https://matplotlib.org/</dc:title>
     </cc:Agent>
    </dc:creator>
   </cc:Work>
  </rdf:RDF>
 </metadata>
 <defs>
  <style type="text/css">*{stroke-linejoin: round; stroke-linecap: butt}</style>
 </defs>
 <g id="figure_1">
  <g id="patch_1">
   <path d="M 0 321.95625 
L 337.578125 321.95625 
L 337.578125 0 
L 0 0 
L 0 321.95625 
z
" style="fill: none"/>
  </g>
  <g id="axes_1">
   <g id="patch_2">
    <path d="M 51.378125 284.4 
L 330.378125 284.4 
L 330.378125 7.2 
L 51.378125 7.2 
L 51.378125 284.4 
z
" style="fill: none"/>
   </g>
   <g id="matplotlib.axis_1">
    <g id="xtick_1">
     <g id="line2d_1">
      <defs>
       <path id="ma3cf58ed29" d="M 0 0 
L 0 3.5 
" style="stroke: #000000; stroke-width: 0.8"/>
      </defs>
      <g>
       <use xlink:href="#ma3cf58ed29" x="64.059943" y="284.4" style="stroke: #000000; stroke-width: 0.8"/>
      </g>
     </g>
     <g id="text_1">
      <!-- 0 -->
      <g transform="translate(60.878693 298.998438) scale(0.1 -0.1)">
       <defs>
        <path id="DejaVuSans-30" d="M 2034 4250 
Q 1547 4250 1301 3770 
Q 1056 3291 1056 2328 
Q 1056 1369 1301 889 
Q 1547 409 2034 409 
Q 2525 409 2770 889 
Q 3016 1369 3016 2328 
Q 3016 3291 2770 3770 
Q 2525 4250 2034 4250 
z
M 2034 4750 
Q 2819 4750 3233 4129 
Q 3647 3509 3647 2328 
Q 3647 1150 3233 529 
Q 2819 -91 2034 -91 
Q 1250 -91 836 529 
Q 422 1150 422 2328 
Q 422 3509 836 4129 
Q 1250 4750 2034 4750 
z
" transform="scale(0.015625)"/>
       </defs>
       <use xlink:href="#DejaVuSans-30"/>
      </g>
     </g>
    </g>
    <g id="xtick_2">
     <g id="line2d_2">
      <g>
       <use xlink:href="#ma3cf58ed29" x="109.392627" y="284.4" style="stroke: #000000; stroke-width: 0.8"/>
      </g>
     </g>
     <g id="text_2">
      <!-- 200 -->
      <g transform="translate(99.848877 298.998438) scale(0.1 -0.1)">
       <defs>
        <path id="DejaVuSans-32" d="M 1228 531 
L 3431 531 
L 3431 0 
L 469 0 
L 469 531 
Q 828 903 1448 1529 
Q 2069 2156 2228 2338 
Q 2531 2678 2651 2914 
Q 2772 3150 2772 3378 
Q 2772 3750 2511 3984 
Q 2250 4219 1831 4219 
Q 1534 4219 1204 4116 
Q 875 4013 500 3803 
L 500 4441 
Q 881 4594 1212 4672 
Q 1544 4750 1819 4750 
Q 2544 4750 2975 4387 
Q 3406 4025 3406 3419 
Q 3406 3131 3298 2873 
Q 3191 2616 2906 2266 
Q 2828 2175 2409 1742 
Q 1991 1309 1228 531 
z
" transform="scale(0.015625)"/>
       </defs>
       <use xlink:href="#DejaVuSans-32"/>
       <use xlink:href="#DejaVuSans-30" x="63.623047"/>
       <use xlink:href="#DejaVuSans-30" x="127.246094"/>
      </g>
     </g>
    </g>
    <g id="xtick_3">
     <g id="line2d_3">
      <g>
       <use xlink:href="#ma3cf58ed29" x="154.72531" y="284.4" style="stroke: #000000; stroke-width: 0.8"/>
      </g>
     </g>
     <g id="text_3">
      <!-- 400 -->
      <g transform="translate(145.18156 298.998438) scale(0.1 -0.1)">
       <defs>
        <path id="DejaVuSans-34" d="M 2419 4116 
L 825 1625 
L 2419 1625 
L 2419 4116 
z
M 2253 4666 
L 3047 4666 
L 3047 1625 
L 3713 1625 
L 3713 1100 
L 3047 1100 
L 3047 0 
L 2419 0 
L 2419 1100 
L 313 1100 
L 313 1709 
L 2253 4666 
z
" transform="scale(0.015625)"/>
       </defs>
       <use xlink:href="#DejaVuSans-34"/>
       <use xlink:href="#DejaVuSans-30" x="63.623047"/>
       <use xlink:href="#DejaVuSans-30" x="127.246094"/>
      </g>
     </g>
    </g>
    <g id="xtick_4">
     <g id="line2d_4">
      <g>
       <use xlink:href="#ma3cf58ed29" x="200.057993" y="284.4" style="stroke: #000000; stroke-width: 0.8"/>
      </g>
     </g>
     <g id="text_4">
      <!-- 600 -->
      <g transform="translate(190.514243 298.998438) scale(0.1 -0.1)">
       <defs>
        <path id="DejaVuSans-36" d="M 2113 2584 
Q 1688 2584 1439 2293 
Q 1191 2003 1191 1497 
Q 1191 994 1439 701 
Q 1688 409 2113 409 
Q 2538 409 2786 701 
Q 3034 994 3034 1497 
Q 3034 2003 2786 2293 
Q 2538 2584 2113 2584 
z
M 3366 4563 
L 3366 3988 
Q 3128 4100 2886 4159 
Q 2644 4219 2406 4219 
Q 1781 4219 1451 3797 
Q 1122 3375 1075 2522 
Q 1259 2794 1537 2939 
Q 1816 3084 2150 3084 
Q 2853 3084 3261 2657 
Q 3669 2231 3669 1497 
Q 3669 778 3244 343 
Q 2819 -91 2113 -91 
Q 1303 -91 875 529 
Q 447 1150 447 2328 
Q 447 3434 972 4092 
Q 1497 4750 2381 4750 
Q 2619 4750 2861 4703 
Q 3103 4656 3366 4563 
z
" transform="scale(0.015625)"/>
       </defs>
       <use xlink:href="#DejaVuSans-36"/>
       <use xlink:href="#DejaVuSans-30" x="63.623047"/>
       <use xlink:href="#DejaVuSans-30" x="127.246094"/>
      </g>
     </g>
    </g>
    <g id="xtick_5">
     <g id="line2d_5">
      <g>
       <use xlink:href="#ma3cf58ed29" x="245.390677" y="284.4" style="stroke: #000000; stroke-width: 0.8"/>
      </g>
     </g>
     <g id="text_5">
      <!-- 800 -->
      <g transform="translate(235.846927 298.998438) scale(0.1 -0.1)">
       <defs>
        <path id="DejaVuSans-38" d="M 2034 2216 
Q 1584 2216 1326 1975 
Q 1069 1734 1069 1313 
Q 1069 891 1326 650 
Q 1584 409 2034 409 
Q 2484 409 2743 651 
Q 3003 894 3003 1313 
Q 3003 1734 2745 1975 
Q 2488 2216 2034 2216 
z
M 1403 2484 
Q 997 2584 770 2862 
Q 544 3141 544 3541 
Q 544 4100 942 4425 
Q 1341 4750 2034 4750 
Q 2731 4750 3128 4425 
Q 3525 4100 3525 3541 
Q 3525 3141 3298 2862 
Q 3072 2584 2669 2484 
Q 3125 2378 3379 2068 
Q 3634 1759 3634 1313 
Q 3634 634 3220 271 
Q 2806 -91 2034 -91 
Q 1263 -91 848 271 
Q 434 634 434 1313 
Q 434 1759 690 2068 
Q 947 2378 1403 2484 
z
M 1172 3481 
Q 1172 3119 1398 2916 
Q 1625 2713 2034 2713 
Q 2441 2713 2670 2916 
Q 2900 3119 2900 3481 
Q 2900 3844 2670 4047 
Q 2441 4250 2034 4250 
Q 1625 4250 1398 4047 
Q 1172 3844 1172 3481 
z
" transform="scale(0.015625)"/>
       </defs>
       <use xlink:href="#DejaVuSans-38"/>
       <use xlink:href="#DejaVuSans-30" x="63.623047"/>
       <use xlink:href="#DejaVuSans-30" x="127.246094"/>
      </g>
     </g>
    </g>
    <g id="xtick_6">
     <g id="line2d_6">
      <g>
       <use xlink:href="#ma3cf58ed29" x="290.72336" y="284.4" style="stroke: #000000; stroke-width: 0.8"/>
      </g>
     </g>
     <g id="text_6">
      <!-- 1000 -->
      <g transform="translate(277.99836 298.998438) scale(0.1 -0.1)">
       <defs>
        <path id="DejaVuSans-31" d="M 794 531 
L 1825 531 
L 1825 4091 
L 703 3866 
L 703 4441 
L 1819 4666 
L 2450 4666 
L 2450 531 
L 3481 531 
L 3481 0 
L 794 0 
L 794 531 
z
" transform="scale(0.015625)"/>
       </defs>
       <use xlink:href="#DejaVuSans-31"/>
       <use xlink:href="#DejaVuSans-30" x="63.623047"/>
       <use xlink:href="#DejaVuSans-30" x="127.246094"/>
       <use xlink:href="#DejaVuSans-30" x="190.869141"/>
      </g>
     </g>
    </g>
    <g id="text_7">
     <!-- Step -->
     <g transform="translate(179.492969 312.676562) scale(0.1 -0.1)">
      <defs>
       <path id="DejaVuSans-53" d="M 3425 4513 
L 3425 3897 
Q 3066 4069 2747 4153 
Q 2428 4238 2131 4238 
Q 1616 4238 1336 4038 
Q 1056 3838 1056 3469 
Q 1056 3159 1242 3001 
Q 1428 2844 1947 2747 
L 2328 2669 
Q 3034 2534 3370 2195 
Q 3706 1856 3706 1288 
Q 3706 609 3251 259 
Q 2797 -91 1919 -91 
Q 1588 -91 1214 -16 
Q 841 59 441 206 
L 441 856 
Q 825 641 1194 531 
Q 1563 422 1919 422 
Q 2459 422 2753 634 
Q 3047 847 3047 1241 
Q 3047 1584 2836 1778 
Q 2625 1972 2144 2069 
L 1759 2144 
Q 1053 2284 737 2584 
Q 422 2884 422 3419 
Q 422 4038 858 4394 
Q 1294 4750 2059 4750 
Q 2388 4750 2728 4690 
Q 3069 4631 3425 4513 
z
" transform="scale(0.015625)"/>
       <path id="DejaVuSans-74" d="M 1172 4494 
L 1172 3500 
L 2356 3500 
L 2356 3053 
L 1172 3053 
L 1172 1153 
Q 1172 725 1289 603 
Q 1406 481 1766 481 
L 2356 481 
L 2356 0 
L 1766 0 
Q 1100 0 847 248 
Q 594 497 594 1153 
L 594 3053 
L 172 3053 
L 172 3500 
L 594 3500 
L 594 4494 
L 1172 4494 
z
" transform="scale(0.015625)"/>
       <path id="DejaVuSans-65" d="M 3597 1894 
L 3597 1613 
L 953 1613 
Q 991 1019 1311 708 
Q 1631 397 2203 397 
Q 2534 397 2845 478 
Q 3156 559 3463 722 
L 3463 178 
Q 3153 47 2828 -22 
Q 2503 -91 2169 -91 
Q 1331 -91 842 396 
Q 353 884 353 1716 
Q 353 2575 817 3079 
Q 1281 3584 2069 3584 
Q 2775 3584 3186 3129 
Q 3597 2675 3597 1894 
z
M 3022 2063 
Q 3016 2534 2758 2815 
Q 2500 3097 2075 3097 
Q 1594 3097 1305 2825 
Q 1016 2553 972 2059 
L 3022 2063 
z
" transform="scale(0.015625)"/>
       <path id="DejaVuSans-70" d="M 1159 525 
L 1159 -1331 
L 581 -1331 
L 581 3500 
L 1159 3500 
L 1159 2969 
Q 1341 3281 1617 3432 
Q 1894 3584 2278 3584 
Q 2916 3584 3314 3078 
Q 3713 2572 3713 1747 
Q 3713 922 3314 415 
Q 2916 -91 2278 -91 
Q 1894 -91 1617 61 
Q 1341 213 1159 525 
z
M 3116 1747 
Q 3116 2381 2855 2742 
Q 2594 3103 2138 3103 
Q 1681 3103 1420 2742 
Q 1159 2381 1159 1747 
Q 1159 1113 1420 752 
Q 1681 391 2138 391 
Q 2594 391 2855 752 
Q 3116 1113 3116 1747 
z
" transform="scale(0.015625)"/>
      </defs>
      <use xlink:href="#DejaVuSans-53"/>
      <use xlink:href="#DejaVuSans-74" x="63.476562"/>
      <use xlink:href="#DejaVuSans-65" x="102.685547"/>
      <use xlink:href="#DejaVuSans-70" x="164.208984"/>
     </g>
    </g>
   </g>
   <g id="matplotlib.axis_2">
    <g id="ytick_1">
     <g id="line2d_7">
      <defs>
       <path id="mfd5522d1e9" d="M 0 0 
L -3.5 0 
" style="stroke: #000000; stroke-width: 0.8"/>
      </defs>
      <g>
       <use xlink:href="#mfd5522d1e9" x="51.378125" y="279.080471" style="stroke: #000000; stroke-width: 0.8"/>
      </g>
     </g>
     <g id="text_8">
      <!-- $\mathdefault{10^{-4}}$ -->
      <g transform="translate(20.878125 282.87969) scale(0.1 -0.1)">
       <defs>
        <path id="DejaVuSans-2212" d="M 678 2272 
L 4684 2272 
L 4684 1741 
L 678 1741 
L 678 2272 
z
" transform="scale(0.015625)"/>
       </defs>
       <use xlink:href="#DejaVuSans-31" transform="translate(0 0.684375)"/>
       <use xlink:href="#DejaVuSans-30" transform="translate(63.623047 0.684375)"/>
       <use xlink:href="#DejaVuSans-2212" transform="translate(128.203125 38.965625) scale(0.7)"/>
       <use xlink:href="#DejaVuSans-34" transform="translate(186.855469 38.965625) scale(0.7)"/>
      </g>
     </g>
    </g>
    <g id="ytick_2">
     <g id="line2d_8">
      <g>
       <use xlink:href="#mfd5522d1e9" x="51.378125" y="219.126882" style="stroke: #000000; stroke-width: 0.8"/>
      </g>
     </g>
     <g id="text_9">
      <!-- $\mathdefault{10^{-3}}$ -->
      <g transform="translate(20.878125 222.926101) scale(0.1 -0.1)">
       <defs>
        <path id="DejaVuSans-33" d="M 2597 2516 
Q 3050 2419 3304 2112 
Q 3559 1806 3559 1356 
Q 3559 666 3084 287 
Q 2609 -91 1734 -91 
Q 1441 -91 1130 -33 
Q 819 25 488 141 
L 488 750 
Q 750 597 1062 519 
Q 1375 441 1716 441 
Q 2309 441 2620 675 
Q 2931 909 2931 1356 
Q 2931 1769 2642 2001 
Q 2353 2234 1838 2234 
L 1294 2234 
L 1294 2753 
L 1863 2753 
Q 2328 2753 2575 2939 
Q 2822 3125 2822 3475 
Q 2822 3834 2567 4026 
Q 2313 4219 1838 4219 
Q 1578 4219 1281 4162 
Q 984 4106 628 3988 
L 628 4550 
Q 988 4650 1302 4700 
Q 1616 4750 1894 4750 
Q 2613 4750 3031 4423 
Q 3450 4097 3450 3541 
Q 3450 3153 3228 2886 
Q 3006 2619 2597 2516 
z
" transform="scale(0.015625)"/>
       </defs>
       <use xlink:href="#DejaVuSans-31" transform="translate(0 0.765625)"/>
       <use xlink:href="#DejaVuSans-30" transform="translate(63.623047 0.765625)"/>
       <use xlink:href="#DejaVuSans-2212" transform="translate(128.203125 39.046875) scale(0.7)"/>
       <use xlink:href="#DejaVuSans-33" transform="translate(186.855469 39.046875) scale(0.7)"/>
      </g>
     </g>
    </g>
    <g id="ytick_3">
     <g id="line2d_9">
      <g>
       <use xlink:href="#mfd5522d1e9" x="51.378125" y="159.173293" style="stroke: #000000; stroke-width: 0.8"/>
      </g>
     </g>
     <g id="text_10">
      <!-- $\mathdefault{10^{-2}}$ -->
      <g transform="translate(20.878125 162.972512) scale(0.1 -0.1)">
       <use xlink:href="#DejaVuSans-31" transform="translate(0 0.765625)"/>
       <use xlink:href="#DejaVuSans-30" transform="translate(63.623047 0.765625)"/>
       <use xlink:href="#DejaVuSans-2212" transform="translate(128.203125 39.046875) scale(0.7)"/>
       <use xlink:href="#DejaVuSans-32" transform="translate(186.855469 39.046875) scale(0.7)"/>
      </g>
     </g>
    </g>
    <g id="ytick_4">
     <g id="line2d_10">
      <g>
       <use xlink:href="#mfd5522d1e9" x="51.378125" y="99.219704" style="stroke: #000000; stroke-width: 0.8"/>
      </g>
     </g>
     <g id="text_11">
      <!-- $\mathdefault{10^{-1}}$ -->
      <g transform="translate(20.878125 103.018923) scale(0.1 -0.1)">
       <use xlink:href="#DejaVuSans-31" transform="translate(0 0.684375)"/>
       <use xlink:href="#DejaVuSans-30" transform="translate(63.623047 0.684375)"/>
       <use xlink:href="#DejaVuSans-2212" transform="translate(128.203125 38.965625) scale(0.7)"/>
       <use xlink:href="#DejaVuSans-31" transform="translate(186.855469 38.965625) scale(0.7)"/>
      </g>
     </g>
    </g>
    <g id="ytick_5">
     <g id="line2d_11">
      <g>
       <use xlink:href="#mfd5522d1e9" x="51.378125" y="39.266116" style="stroke: #000000; stroke-width: 0.8"/>
      </g>
     </g>
     <g id="text_12">
      <!-- $\mathdefault{10^{0}}$ -->
      <g transform="translate(26.778125 43.065334) scale(0.1 -0.1)">
       <use xlink:href="#DejaVuSans-31" transform="translate(0 0.765625)"/>
       <use xlink:href="#DejaVuSans-30" transform="translate(63.623047 0.765625)"/>
       <use xlink:href="#DejaVuSans-30" transform="translate(128.203125 39.046875) scale(0.7)"/>
      </g>
     </g>
    </g>
    <g id="ytick_6">
     <g id="line2d_12">
      <defs>
       <path id="me88655ebff" d="M 0 0 
L -2 0 
" style="stroke: #000000; stroke-width: 0.6"/>
      </defs>
      <g>
       <use xlink:href="#me88655ebff" x="51.378125" y="281.823797" style="stroke: #000000; stroke-width: 0.6"/>
      </g>
     </g>
    </g>
    <g id="ytick_7">
     <g id="line2d_13">
      <g>
       <use xlink:href="#me88655ebff" x="51.378125" y="261.032642" style="stroke: #000000; stroke-width: 0.6"/>
      </g>
     </g>
    </g>
    <g id="ytick_8">
     <g id="line2d_14">
      <g>
       <use xlink:href="#me88655ebff" x="51.378125" y="250.475339" style="stroke: #000000; stroke-width: 0.6"/>
      </g>
     </g>
    </g>
    <g id="ytick_9">
     <g id="line2d_15">
      <g>
       <use xlink:href="#me88655ebff" x="51.378125" y="242.984814" style="stroke: #000000; stroke-width: 0.6"/>
      </g>
     </g>
    </g>
    <g id="ytick_10">
     <g id="line2d_16">
      <g>
       <use xlink:href="#me88655ebff" x="51.378125" y="237.174711" style="stroke: #000000; stroke-width: 0.6"/>
      </g>
     </g>
    </g>
    <g id="ytick_11">
     <g id="line2d_17">
      <g>
       <use xlink:href="#me88655ebff" x="51.378125" y="232.427511" style="stroke: #000000; stroke-width: 0.6"/>
      </g>
     </g>
    </g>
    <g id="ytick_12">
     <g id="line2d_18">
      <g>
       <use xlink:href="#me88655ebff" x="51.378125" y="228.41381" style="stroke: #000000; stroke-width: 0.6"/>
      </g>
     </g>
    </g>
    <g id="ytick_13">
     <g id="line2d_19">
      <g>
       <use xlink:href="#me88655ebff" x="51.378125" y="224.936985" style="stroke: #000000; stroke-width: 0.6"/>
      </g>
     </g>
    </g>
    <g id="ytick_14">
     <g id="line2d_20">
      <g>
       <use xlink:href="#me88655ebff" x="51.378125" y="221.870208" style="stroke: #000000; stroke-width: 0.6"/>
      </g>
     </g>
    </g>
    <g id="ytick_15">
     <g id="line2d_21">
      <g>
       <use xlink:href="#me88655ebff" x="51.378125" y="201.079053" style="stroke: #000000; stroke-width: 0.6"/>
      </g>
     </g>
    </g>
    <g id="ytick_16">
     <g id="line2d_22">
      <g>
       <use xlink:href="#me88655ebff" x="51.378125" y="190.52175" style="stroke: #000000; stroke-width: 0.6"/>
      </g>
     </g>
    </g>
    <g id="ytick_17">
     <g id="line2d_23">
      <g>
       <use xlink:href="#me88655ebff" x="51.378125" y="183.031225" style="stroke: #000000; stroke-width: 0.6"/>
      </g>
     </g>
    </g>
    <g id="ytick_18">
     <g id="line2d_24">
      <g>
       <use xlink:href="#me88655ebff" x="51.378125" y="177.221122" style="stroke: #000000; stroke-width: 0.6"/>
      </g>
     </g>
    </g>
    <g id="ytick_19">
     <g id="line2d_25">
      <g>
       <use xlink:href="#me88655ebff" x="51.378125" y="172.473922" style="stroke: #000000; stroke-width: 0.6"/>
      </g>
     </g>
    </g>
    <g id="ytick_20">
     <g id="line2d_26">
      <g>
       <use xlink:href="#me88655ebff" x="51.378125" y="168.460222" style="stroke: #000000; stroke-width: 0.6"/>
      </g>
     </g>
    </g>
    <g id="ytick_21">
     <g id="line2d_27">
      <g>
       <use xlink:href="#me88655ebff" x="51.378125" y="164.983396" style="stroke: #000000; stroke-width: 0.6"/>
      </g>
     </g>
    </g>
    <g id="ytick_22">
     <g id="line2d_28">
      <g>
       <use xlink:href="#me88655ebff" x="51.378125" y="161.916619" style="stroke: #000000; stroke-width: 0.6"/>
      </g>
     </g>
    </g>
    <g id="ytick_23">
     <g id="line2d_29">
      <g>
       <use xlink:href="#me88655ebff" x="51.378125" y="141.125465" style="stroke: #000000; stroke-width: 0.6"/>
      </g>
     </g>
    </g>
    <g id="ytick_24">
     <g id="line2d_30">
      <g>
       <use xlink:href="#me88655ebff" x="51.378125" y="130.568162" style="stroke: #000000; stroke-width: 0.6"/>
      </g>
     </g>
    </g>
    <g id="ytick_25">
     <g id="line2d_31">
      <g>
       <use xlink:href="#me88655ebff" x="51.378125" y="123.077636" style="stroke: #000000; stroke-width: 0.6"/>
      </g>
     </g>
    </g>
    <g id="ytick_26">
     <g id="line2d_32">
      <g>
       <use xlink:href="#me88655ebff" x="51.378125" y="117.267533" style="stroke: #000000; stroke-width: 0.6"/>
      </g>
     </g>
    </g>
    <g id="ytick_27">
     <g id="line2d_33">
      <g>
       <use xlink:href="#me88655ebff" x="51.378125" y="112.520333" style="stroke: #000000; stroke-width: 0.6"/>
      </g>
     </g>
    </g>
    <g id="ytick_28">
     <g id="line2d_34">
      <g>
       <use xlink:href="#me88655ebff" x="51.378125" y="108.506633" style="stroke: #000000; stroke-width: 0.6"/>
      </g>
     </g>
    </g>
    <g id="ytick_29">
     <g id="line2d_35">
      <g>
       <use xlink:href="#me88655ebff" x="51.378125" y="105.029807" style="stroke: #000000; stroke-width: 0.6"/>
      </g>
     </g>
    </g>
    <g id="ytick_30">
     <g id="line2d_36">
      <g>
       <use xlink:href="#me88655ebff" x="51.378125" y="101.96303" style="stroke: #000000; stroke-width: 0.6"/>
      </g>
     </g>
    </g>
    <g id="ytick_31">
     <g id="line2d_37">
      <g>
       <use xlink:href="#me88655ebff" x="51.378125" y="81.171876" style="stroke: #000000; stroke-width: 0.6"/>
      </g>
     </g>
    </g>
    <g id="ytick_32">
     <g id="line2d_38">
      <g>
       <use xlink:href="#me88655ebff" x="51.378125" y="70.614573" style="stroke: #000000; stroke-width: 0.6"/>
      </g>
     </g>
    </g>
    <g id="ytick_33">
     <g id="line2d_39">
      <g>
       <use xlink:href="#me88655ebff" x="51.378125" y="63.124047" style="stroke: #000000; stroke-width: 0.6"/>
      </g>
     </g>
    </g>
    <g id="ytick_34">
     <g id="line2d_40">
      <g>
       <use xlink:href="#me88655ebff" x="51.378125" y="57.313944" style="stroke: #000000; stroke-width: 0.6"/>
      </g>
     </g>
    </g>
    <g id="ytick_35">
     <g id="line2d_41">
      <g>
       <use xlink:href="#me88655ebff" x="51.378125" y="52.566744" style="stroke: #000000; stroke-width: 0.6"/>
      </g>
     </g>
    </g>
    <g id="ytick_36">
     <g id="line2d_42">
      <g>
       <use xlink:href="#me88655ebff" x="51.378125" y="48.553044" style="stroke: #000000; stroke-width: 0.6"/>
      </g>
     </g>
    </g>
    <g id="ytick_37">
     <g id="line2d_43">
      <g>
       <use xlink:href="#me88655ebff" x="51.378125" y="45.076219" style="stroke: #000000; stroke-width: 0.6"/>
      </g>
     </g>
    </g>
    <g id="ytick_38">
     <g id="line2d_44">
      <g>
       <use xlink:href="#me88655ebff" x="51.378125" y="42.009441" style="stroke: #000000; stroke-width: 0.6"/>
      </g>
     </g>
    </g>
    <g id="ytick_39">
     <g id="line2d_45">
      <g>
       <use xlink:href="#me88655ebff" x="51.378125" y="21.218287" style="stroke: #000000; stroke-width: 0.6"/>
      </g>
     </g>
    </g>
    <g id="ytick_40">
     <g id="line2d_46">
      <g>
       <use xlink:href="#me88655ebff" x="51.378125" y="10.660984" style="stroke: #000000; stroke-width: 0.6"/>
      </g>
     </g>
    </g>
    <g id="text_13">
     <!-- Loss -->
     <g transform="translate(14.798438 156.767187) rotate(-90) scale(0.1 -0.1)">
      <defs>
       <path id="DejaVuSans-4c" d="M 628 4666 
L 1259 4666 
L 1259 531 
L 3531 531 
L 3531 0 
L 628 0 
L 628 4666 
z
" transform="scale(0.015625)"/>
       <path id="DejaVuSans-6f" d="M 1959 3097 
Q 1497 3097 1228 2736 
Q 959 2375 959 1747 
Q 959 1119 1226 758 
Q 1494 397 1959 397 
Q 2419 397 2687 759 
Q 2956 1122 2956 1747 
Q 2956 2369 2687 2733 
Q 2419 3097 1959 3097 
z
M 1959 3584 
Q 2709 3584 3137 3096 
Q 3566 2609 3566 1747 
Q 3566 888 3137 398 
Q 2709 -91 1959 -91 
Q 1206 -91 779 398 
Q 353 888 353 1747 
Q 353 2609 779 3096 
Q 1206 3584 1959 3584 
z
" transform="scale(0.015625)"/>
       <path id="DejaVuSans-73" d="M 2834 3397 
L 2834 2853 
Q 2591 2978 2328 3040 
Q 2066 3103 1784 3103 
Q 1356 3103 1142 2972 
Q 928 2841 928 2578 
Q 928 2378 1081 2264 
Q 1234 2150 1697 2047 
L 1894 2003 
Q 2506 1872 2764 1633 
Q 3022 1394 3022 966 
Q 3022 478 2636 193 
Q 2250 -91 1575 -91 
Q 1294 -91 989 -36 
Q 684 19 347 128 
L 347 722 
Q 666 556 975 473 
Q 1284 391 1588 391 
Q 1994 391 2212 530 
Q 2431 669 2431 922 
Q 2431 1156 2273 1281 
Q 2116 1406 1581 1522 
L 1381 1569 
Q 847 1681 609 1914 
Q 372 2147 372 2553 
Q 372 3047 722 3315 
Q 1072 3584 1716 3584 
Q 2034 3584 2315 3537 
Q 2597 3491 2834 3397 
z
" transform="scale(0.015625)"/>
      </defs>
      <use xlink:href="#DejaVuSans-4c"/>
      <use xlink:href="#DejaVuSans-6f" x="53.962891"/>
      <use xlink:href="#DejaVuSans-73" x="115.144531"/>
      <use xlink:href="#DejaVuSans-73" x="167.244141"/>
     </g>
    </g>
   </g>
   <g id="line2d_47">
    <path d="M 64.059943 24.444336 
L 64.286607 25.923077 
L 64.51327 24.579372 
L 64.739933 24.573288 
L 65.19326 25.085161 
L 65.419924 24.820457 
L 65.646587 24.954224 
L 66.099914 25.86987 
L 66.326577 26.499941 
L 66.553241 26.500589 
L 66.779904 26.020675 
L 67.459894 26.576766 
L 68.139885 26.159053 
L 69.273202 26.127428 
L 69.499865 26.225168 
L 69.953192 26.003074 
L 70.859846 26.148728 
L 71.313173 26.283234 
L 71.993163 26.277831 
L 72.899816 26.463914 
L 73.353143 26.588784 
L 74.259797 26.825729 
L 74.48646 26.629934 
L 75.166451 26.618775 
L 75.846441 26.426323 
L 76.073104 26.515524 
L 76.526431 26.426492 
L 77.206421 32.337033 
L 77.433085 30.957332 
L 77.659748 30.730136 
L 77.886412 31.953486 
L 78.113075 32.221488 
L 78.339738 32.886153 
L 79.019729 32.205572 
L 79.473056 32.533243 
L 80.833036 33.643202 
L 81.059699 33.276773 
L 81.286363 33.192173 
L 81.513026 33.672453 
L 81.73969 33.61179 
L 82.646343 32.722832 
L 82.873007 33.133937 
L 83.09967 32.837577 
L 83.326334 32.782129 
L 84.006324 32.040438 
L 84.232987 32.134283 
L 84.459651 31.990262 
L 86.272958 32.375045 
L 86.726285 32.25759 
L 87.406275 32.29827 
L 88.086265 32.160164 
L 88.766256 32.292019 
L 88.992919 32.385162 
L 89.219582 32.124018 
L 89.446246 33.154697 
L 89.672909 34.847443 
L 89.899573 33.526873 
L 90.806226 37.236528 
L 91.03289 36.680299 
L 91.259553 37.206808 
L 91.486217 38.109487 
L 91.71288 37.676152 
L 92.166207 38.477847 
L 92.39287 38.502304 
L 92.619534 39.139196 
L 92.846197 39.094286 
L 93.072861 38.760987 
L 93.526187 38.879374 
L 93.752851 38.583355 
L 94.206178 39.100124 
L 94.432841 38.907114 
L 94.886168 38.989123 
L 95.112831 38.391363 
L 95.566158 38.308585 
L 95.792822 38.406503 
L 96.019485 38.357574 
L 96.246148 38.17023 
L 96.699475 38.183176 
L 97.152802 38.24254 
L 97.606129 38.647149 
L 97.832792 38.537473 
L 98.059456 38.64393 
L 98.286119 38.935279 
L 98.512783 39.036722 
L 99.192773 39.006684 
L 99.6461 39.109739 
L 100.099426 39.328246 
L 100.32609 39.307517 
L 100.779417 39.381122 
L 101.68607 39.447479 
L 101.912734 39.422967 
L 102.139397 49.71875 
L 102.366061 49.058168 
L 102.592724 47.992977 
L 102.819387 50.205701 
L 103.046051 48.606107 
L 103.272714 48.353634 
L 103.499378 48.32309 
L 103.726041 47.616492 
L 103.952705 47.298009 
L 104.179368 47.273049 
L 104.406031 48.231059 
L 104.632695 48.039881 
L 104.859358 47.034267 
L 105.086022 46.626227 
L 105.539348 47.046771 
L 105.766012 46.94302 
L 105.992675 47.237003 
L 106.219339 46.766801 
L 106.672666 47.671831 
L 106.899329 47.764453 
L 107.579319 48.716191 
L 107.805983 48.388982 
L 108.259309 48.264934 
L 108.485973 48.205923 
L 108.9393 48.725491 
L 109.392627 48.730181 
L 109.61929 48.561134 
L 109.845953 48.808793 
L 110.072617 48.790836 
L 110.29928 48.917679 
L 110.525944 48.578933 
L 110.752607 48.77987 
L 110.979271 48.760485 
L 111.205934 48.582843 
L 111.432597 48.859077 
L 111.659261 48.923184 
L 111.885924 49.181992 
L 112.339251 49.374542 
L 112.565914 49.036345 
L 112.792578 49.272802 
L 113.019241 49.091896 
L 113.699232 49.311925 
L 114.152558 49.118351 
L 114.605885 49.173145 
L 114.832549 59.640703 
L 115.059212 62.161656 
L 115.285875 62.709785 
L 115.512539 57.612079 
L 115.739202 59.133071 
L 115.965866 59.117403 
L 116.419193 60.408063 
L 116.645856 60.092325 
L 116.872519 60.106585 
L 117.099183 59.08198 
L 117.55251 60.691299 
L 117.779173 60.963522 
L 118.005836 60.789845 
L 118.2325 61.468552 
L 118.459163 61.52288 
L 118.685827 60.768527 
L 118.91249 60.75196 
L 119.139154 60.160039 
L 119.365817 60.695287 
L 119.59248 60.550637 
L 119.819144 60.557912 
L 120.045807 60.009938 
L 120.272471 59.96155 
L 120.499134 60.134448 
L 120.725797 59.568022 
L 121.179124 60.353532 
L 121.405788 59.738719 
L 121.632451 59.826484 
L 121.859115 59.63627 
L 122.312441 59.774648 
L 122.539105 59.426128 
L 122.765768 59.767253 
L 123.219095 58.808528 
L 123.445758 58.595076 
L 123.672422 58.560069 
L 123.899085 58.871851 
L 124.125749 58.490606 
L 124.352412 58.533559 
L 124.579076 58.297343 
L 125.712393 58.652745 
L 125.939056 58.853511 
L 126.392383 58.812986 
L 126.619046 58.44064 
L 126.84571 58.44543 
L 127.072373 58.704513 
L 127.299037 58.750728 
L 127.5257 107.719644 
L 127.752363 86.473852 
L 127.979027 84.798833 
L 128.20569 80.352965 
L 128.432354 80.556871 
L 128.659017 79.984955 
L 128.88568 78.786547 
L 129.112344 75.213947 
L 129.565671 77.858612 
L 129.792334 78.592969 
L 130.018998 77.869126 
L 130.245661 77.98843 
L 130.472324 79.227406 
L 130.925651 78.537054 
L 131.152315 78.437922 
L 131.378978 76.949773 
L 131.605641 76.870853 
L 131.832305 76.473928 
L 132.058968 76.734145 
L 132.285632 75.13086 
L 132.738959 76.082855 
L 132.965622 75.492792 
L 133.192285 75.22364 
L 133.418949 74.44194 
L 133.872276 74.404613 
L 134.098939 74.661143 
L 134.552266 73.785248 
L 134.778929 73.413497 
L 135.005593 73.525958 
L 135.232256 73.447908 
L 135.45892 73.059858 
L 135.685583 73.338893 
L 135.912246 72.998641 
L 136.8189 73.860349 
L 137.045563 74.000716 
L 137.272227 74.454392 
L 137.49889 73.509025 
L 137.952217 73.410974 
L 138.178881 73.275908 
L 138.632207 72.788857 
L 138.858871 72.507139 
L 139.085534 72.827771 
L 139.992188 71.429954 
L 140.218851 74.780117 
L 140.445515 73.774344 
L 140.672178 76.478784 
L 140.898842 77.4169 
L 141.352168 79.920752 
L 141.578832 78.991462 
L 141.805495 80.014049 
L 142.032159 77.311011 
L 142.258822 76.680484 
L 142.485485 77.359069 
L 142.712149 78.497106 
L 142.938812 77.887371 
L 143.165476 77.801402 
L 143.845466 79.13153 
L 144.072129 78.861465 
L 144.298793 77.846463 
L 144.978783 76.558209 
L 145.205446 77.519101 
L 145.43211 77.572738 
L 145.658773 77.094463 
L 145.885437 76.145987 
L 146.1121 75.802818 
L 146.565427 74.665718 
L 146.79209 74.583338 
L 147.245417 74.017563 
L 147.472081 74.047827 
L 147.925407 74.867332 
L 148.152071 74.733951 
L 148.378734 74.813679 
L 148.832061 74.118127 
L 149.058725 74.170862 
L 149.512051 73.927518 
L 149.738715 73.993415 
L 149.965378 74.301338 
L 150.192042 74.325249 
L 150.418705 74.20474 
L 150.645368 73.957901 
L 151.098695 74.263373 
L 151.325359 74.18186 
L 151.552022 73.419794 
L 151.778686 73.431613 
L 152.005349 73.745352 
L 152.232012 73.563662 
L 152.685339 74.085902 
L 152.912003 81.929023 
L 153.138666 78.272931 
L 153.365329 81.858203 
L 153.591993 78.544322 
L 153.818656 79.709455 
L 154.04532 79.758559 
L 154.271983 81.00213 
L 154.498647 78.586269 
L 154.72531 79.307067 
L 154.951973 81.15257 
L 155.178637 81.679225 
L 155.631964 83.696338 
L 155.858627 81.969599 
L 156.08529 83.363573 
L 156.765281 84.22295 
L 156.991944 83.079661 
L 157.671934 84.922478 
L 158.125261 85.551698 
L 158.351925 86.030895 
L 158.805251 87.423351 
L 159.031915 87.265989 
L 159.258578 86.727002 
L 159.485242 86.71869 
L 159.711905 85.841254 
L 159.938569 84.192219 
L 160.165232 84.901571 
L 160.391895 84.543404 
L 160.618559 83.769413 
L 161.071886 83.530275 
L 161.298549 83.786993 
L 161.525212 84.264444 
L 161.751876 84.008833 
L 161.978539 84.295924 
L 162.205203 84.382431 
L 162.431866 84.320435 
L 162.65853 84.575063 
L 162.885193 84.475275 
L 163.33852 84.989533 
L 163.565183 83.931572 
L 164.01851 83.246755 
L 164.245174 82.878448 
L 164.6985 83.031852 
L 164.925164 83.153022 
L 165.378491 83.800679 
L 165.605154 97.76182 
L 166.285144 111.183638 
L 166.511808 107.776416 
L 166.738471 108.926819 
L 166.965135 108.93756 
L 167.191798 106.336431 
L 167.418461 105.481124 
L 167.645125 106.475694 
L 167.871788 106.964542 
L 168.325115 109.715034 
L 168.551778 109.598306 
L 168.778442 105.6704 
L 169.231769 102.519366 
L 169.911759 105.224766 
L 170.138422 104.040951 
L 170.365086 102.137987 
L 170.591749 96.299747 
L 170.818413 96.675687 
L 171.045076 97.304784 
L 171.271739 96.424563 
L 171.498403 96.566652 
L 171.725066 96.861033 
L 171.95173 96.49528 
L 172.405057 96.974403 
L 172.63172 95.713419 
L 172.858383 96.248888 
L 173.085047 95.523554 
L 173.31171 95.340739 
L 173.538374 94.314455 
L 173.765037 92.634188 
L 173.9917 92.527013 
L 174.218364 92.874094 
L 174.445027 92.897737 
L 174.671691 92.08563 
L 174.898354 92.47439 
L 175.125018 92.185138 
L 175.578344 92.906604 
L 175.805008 93.170921 
L 176.258335 92.796461 
L 176.711661 92.994444 
L 176.938325 93.163747 
L 177.618315 94.241305 
L 177.844979 94.345487 
L 178.071642 94.579204 
L 178.298305 110.389385 
L 178.524969 116.521053 
L 178.751632 112.831083 
L 178.978296 117.372859 
L 179.204959 96.33328 
L 179.658286 103.062802 
L 179.884949 104.171605 
L 180.111613 106.810853 
L 180.56494 103.697751 
L 180.791603 103.311609 
L 181.018266 103.58866 
L 181.471593 106.526434 
L 181.698257 104.949284 
L 181.92492 104.587613 
L 182.151583 104.669803 
L 182.378247 102.384677 
L 182.831574 103.96831 
L 183.284901 105.260536 
L 183.511564 105.27651 
L 183.738227 103.715051 
L 183.964891 103.564308 
L 184.191554 104.433106 
L 184.418218 104.581534 
L 184.644881 104.0877 
L 184.871544 102.99929 
L 185.098208 103.116545 
L 185.324871 103.080621 
L 185.551535 102.583468 
L 185.778198 100.916469 
L 186.004862 100.540858 
L 186.458188 101.459386 
L 186.684852 101.807516 
L 186.911515 101.863337 
L 187.138179 101.27992 
L 187.364842 100.175168 
L 187.591505 96.707822 
L 187.818169 96.42873 
L 188.271496 97.009813 
L 188.498159 95.821035 
L 188.724823 95.45437 
L 188.951486 94.714573 
L 189.178149 94.636344 
L 189.404813 94.310462 
L 189.631476 94.641973 
L 189.85814 93.652258 
L 190.084803 93.402411 
L 190.311466 91.959941 
L 190.53813 91.924242 
L 190.764793 90.423756 
L 190.991457 69.407867 
L 191.21812 83.561581 
L 191.444784 86.518176 
L 191.671447 90.9539 
L 191.89811 91.06388 
L 192.124774 86.238154 
L 192.578101 90.252146 
L 192.804764 81.137892 
L 193.258091 84.795031 
L 193.484754 80.644601 
L 193.938081 83.443821 
L 194.391408 85.543629 
L 194.618071 85.480416 
L 194.844735 86.321614 
L 195.071398 76.767386 
L 195.298062 76.738445 
L 195.524725 77.381005 
L 195.978052 74.630979 
L 196.204715 74.771935 
L 196.658042 75.648201 
L 196.884706 75.710263 
L 197.111369 75.907467 
L 197.338032 75.124397 
L 197.564696 75.060705 
L 197.791359 75.326722 
L 198.471349 76.895994 
L 198.698013 76.952165 
L 198.924676 77.187985 
L 199.15134 77.607434 
L 199.378003 77.462186 
L 199.83133 78.554215 
L 200.057993 78.485178 
L 200.284657 78.554857 
L 201.417974 80.266478 
L 202.324628 81.730358 
L 202.777954 82.075307 
L 203.004618 82.346167 
L 203.231281 82.807066 
L 203.457945 83.003011 
L 203.684608 106.717271 
L 204.137935 121.128559 
L 204.364598 103.961799 
L 204.591262 108.745476 
L 204.817925 109.245053 
L 205.951242 118.989115 
L 206.177906 115.996557 
L 206.404569 115.384333 
L 206.857896 118.010915 
L 207.084559 117.280574 
L 207.311223 114.402063 
L 207.537886 114.972584 
L 207.76455 107.128355 
L 208.217876 108.944856 
L 208.44454 109.776892 
L 208.671203 109.490187 
L 208.897867 110.137394 
L 209.12453 102.647619 
L 209.351193 103.47805 
L 209.577857 103.246156 
L 209.80452 97.526203 
L 210.031184 97.348471 
L 210.257847 97.326905 
L 210.484511 97.492735 
L 210.711174 98.010964 
L 210.937837 98.156962 
L 211.164501 97.98656 
L 211.391164 97.620823 
L 211.844491 97.91024 
L 212.071154 97.837937 
L 212.297818 98.371837 
L 212.524481 97.094239 
L 212.751145 96.955725 
L 212.977808 97.439908 
L 213.204472 96.422469 
L 213.657798 96.924137 
L 213.884462 97.228396 
L 214.111125 95.563161 
L 214.337789 95.859036 
L 214.564452 94.907876 
L 214.791115 95.050489 
L 215.017779 94.074786 
L 215.244442 94.121126 
L 215.471106 94.044293 
L 215.697769 94.415364 
L 216.151096 94.320947 
L 216.377759 151.66395 
L 216.604423 107.006189 
L 216.831086 111.91257 
L 217.05775 101.252038 
L 217.284413 106.759066 
L 217.511076 104.797025 
L 217.73774 108.060359 
L 217.964403 109.493197 
L 218.191067 109.969057 
L 218.41773 110.986572 
L 218.644394 107.643446 
L 218.871057 108.8787 
L 219.09772 110.732525 
L 219.324384 110.41869 
L 219.777711 112.636222 
L 220.004374 112.279715 
L 220.231038 112.299383 
L 220.684364 113.562556 
L 221.137691 115.65022 
L 221.364355 115.138022 
L 221.817681 116.666718 
L 222.044345 116.722135 
L 222.271008 117.338229 
L 222.497672 112.727599 
L 222.724335 112.748523 
L 222.950999 113.325487 
L 223.177662 112.463194 
L 223.404325 112.261083 
L 224.084316 113.957901 
L 224.310979 112.017547 
L 224.537642 112.238148 
L 224.764306 112.824952 
L 224.990969 112.910209 
L 225.444296 113.764953 
L 226.124286 114.733673 
L 226.35095 114.828065 
L 226.577613 114.018105 
L 227.03094 114.83126 
L 227.257603 114.404457 
L 227.484267 112.77781 
L 227.71093 113.171007 
L 227.937594 111.955574 
L 228.390921 112.109385 
L 228.617584 111.759499 
L 228.844247 111.665163 
L 229.070911 181.139857 
L 229.297574 139.32115 
L 229.524238 139.096921 
L 229.977564 149.844105 
L 230.204228 86.317822 
L 230.657555 92.592554 
L 230.884218 93.516977 
L 232.017535 102.391958 
L 232.244199 101.62881 
L 232.697525 104.347795 
L 232.924189 104.379561 
L 233.150852 105.353412 
L 233.377516 105.100737 
L 233.604179 104.375874 
L 234.510833 107.887467 
L 234.96416 108.442535 
L 235.64415 110.438809 
L 235.870813 109.279568 
L 236.097477 109.867776 
L 236.550804 110.355132 
L 236.777467 110.793377 
L 237.00413 109.864561 
L 237.457457 111.007815 
L 237.684121 110.205764 
L 238.817438 112.734905 
L 239.044101 111.971366 
L 239.270765 112.237398 
L 239.497428 106.933133 
L 239.724091 107.42573 
L 239.950755 107.507362 
L 240.177418 107.833734 
L 240.404082 107.704126 
L 240.857408 108.385491 
L 241.084072 108.55704 
L 241.537399 109.31238 
L 241.764062 132.72624 
L 241.990726 130.589069 
L 242.217389 131.872449 
L 242.444052 138.603851 
L 242.897379 113.750382 
L 243.124043 117.119945 
L 243.350706 103.895933 
L 243.577369 102.369275 
L 244.030696 106.501661 
L 244.25736 107.577158 
L 244.484023 104.670594 
L 244.710687 103.918971 
L 244.93735 96.575925 
L 245.61734 100.54879 
L 245.844004 99.78089 
L 246.29733 101.680872 
L 246.523994 101.89238 
L 246.750657 100.005529 
L 246.977321 99.201132 
L 247.203984 97.542189 
L 247.657311 99.210495 
L 247.883974 97.531666 
L 248.337301 99.033768 
L 248.563965 99.355352 
L 248.790628 98.003006 
L 249.017291 98.671793 
L 249.243955 98.010098 
L 249.697282 99.139699 
L 250.377272 96.202177 
L 250.830599 96.260519 
L 251.283926 97.323489 
L 251.737252 98.222183 
L 251.963916 97.849835 
L 252.190579 98.15461 
L 252.417243 97.849366 
L 252.643906 98.015148 
L 252.87057 97.904933 
L 253.097233 97.599548 
L 253.323896 97.644823 
L 253.777223 98.018112 
L 254.003887 97.929953 
L 254.23055 98.311849 
L 254.457213 94.246898 
L 254.683877 107.409249 
L 254.91054 106.33641 
L 255.137204 109.980812 
L 255.363867 101.364359 
L 255.590531 83.612228 
L 256.043857 88.717947 
L 256.270521 87.089733 
L 256.497184 88.209815 
L 256.723848 90.331197 
L 256.950511 87.327334 
L 257.177174 86.951693 
L 257.630501 89.620759 
L 258.083828 91.085313 
L 258.537155 93.466056 
L 258.763818 92.875505 
L 259.897135 96.591234 
L 260.123799 96.467053 
L 260.350462 96.640401 
L 260.577126 94.0246 
L 260.803789 93.861968 
L 262.617096 99.077926 
L 262.84376 97.82617 
L 263.297087 99.041354 
L 263.52375 99.350209 
L 263.750414 99.449066 
L 264.20374 100.315045 
L 264.430404 100.893376 
L 264.657067 100.829848 
L 264.883731 101.077641 
L 265.110394 101.611659 
L 265.337057 100.687196 
L 265.563721 100.959388 
L 265.790384 101.001632 
L 266.470375 101.983139 
L 266.697038 101.371581 
L 266.923701 101.541987 
L 267.150365 160.87657 
L 267.377028 145.364682 
L 267.603692 144.304014 
L 267.830355 146.978857 
L 268.057018 143.870246 
L 268.283682 133.448785 
L 268.510345 136.269214 
L 268.963672 121.867905 
L 269.190336 118.667459 
L 269.416999 110.494739 
L 269.643662 107.418444 
L 269.870326 109.294069 
L 270.096989 108.653805 
L 270.323653 106.955845 
L 270.550316 107.525328 
L 270.776979 108.7914 
L 271.003643 109.195563 
L 271.230306 107.638608 
L 271.45697 108.659087 
L 271.683633 109.123536 
L 271.910297 107.698575 
L 272.13696 107.642001 
L 272.590287 104.23126 
L 272.81695 103.915309 
L 273.043614 104.692691 
L 273.270277 95.676761 
L 273.496941 94.332609 
L 273.723604 94.348739 
L 274.176931 95.226162 
L 274.403594 95.268419 
L 274.630258 95.437249 
L 275.083584 93.859364 
L 275.536911 92.997847 
L 275.763575 92.245082 
L 275.990238 91.882966 
L 276.216902 91.731747 
L 276.443565 92.275042 
L 277.123555 92.842927 
L 277.576882 93.708264 
L 277.803545 92.375264 
L 278.483536 93.346126 
L 278.710199 93.323217 
L 279.163526 94.075582 
L 279.390189 94.100963 
L 279.616853 94.548918 
L 279.843516 126.134839 
L 280.07018 141.144015 
L 280.296843 148.171156 
L 280.523506 141.778805 
L 280.75017 110.699407 
L 281.656824 121.164261 
L 281.883487 121.346719 
L 282.336814 124.167373 
L 282.563477 125.263215 
L 282.790141 124.739813 
L 283.696794 129.212569 
L 283.923458 128.333053 
L 284.150121 129.301688 
L 284.376785 123.6891 
L 284.830111 125.578284 
L 285.283438 127.076475 
L 285.510102 127.653863 
L 285.736765 124.895072 
L 285.963428 124.682574 
L 286.190092 125.365721 
L 286.416755 120.636471 
L 287.096746 122.951989 
L 287.323409 122.299625 
L 287.776736 123.476663 
L 288.003399 123.562668 
L 288.230063 124.076021 
L 288.456726 122.711813 
L 289.136716 124.26954 
L 289.590043 124.684276 
L 289.816707 123.419773 
L 290.270033 124.231546 
L 290.72336 124.725745 
L 290.950024 124.32629 
L 291.176687 124.725991 
L 291.40335 123.639085 
L 291.630014 124.029654 
L 291.856677 123.987669 
L 292.083341 124.450059 
L 292.310004 122.184225 
L 292.536668 175.387826 
L 292.763331 183.070637 
L 292.989994 171.066528 
L 293.216658 123.024621 
L 293.443321 125.654371 
L 293.669985 130.214651 
L 293.896648 117.369907 
L 294.123311 119.592743 
L 294.349975 113.718926 
L 295.256629 122.101557 
L 295.709955 125.246318 
L 296.163282 120.120012 
L 296.616609 116.403458 
L 296.843272 117.560661 
L 297.069936 118.120203 
L 297.523263 119.916691 
L 297.97659 118.218145 
L 298.203253 118.059648 
L 298.429916 118.518972 
L 298.65658 117.580822 
L 299.33657 112.748283 
L 299.563233 112.863556 
L 299.789897 113.177565 
L 300.01656 113.891602 
L 300.243224 114.170394 
L 300.469887 114.77415 
L 300.696551 113.791135 
L 300.923214 113.372725 
L 301.149877 113.94652 
L 301.376541 113.766937 
L 301.603204 113.837419 
L 301.829868 114.25767 
L 302.056531 113.322682 
L 302.509858 114.12505 
L 302.736521 114.23035 
L 302.963185 114.717466 
L 303.189848 114.683619 
L 303.416512 115.14635 
L 303.643175 115.024111 
L 303.869838 115.529359 
L 304.323165 116.052955 
L 304.549829 115.944793 
L 305.003155 116.452021 
L 305.229819 187.591346 
L 305.456482 127.168087 
L 305.683146 137.043288 
L 305.909809 132.146439 
L 306.363136 140.679238 
L 306.589799 141.918468 
L 306.816463 145.322988 
L 307.043126 146.857316 
L 307.26979 147.057069 
L 307.496453 138.713102 
L 307.723116 140.907563 
L 307.94978 133.659542 
L 308.176443 135.111751 
L 308.403107 135.608029 
L 308.62977 137.254163 
L 308.856434 136.309195 
L 309.536424 139.936564 
L 309.989751 142.236966 
L 310.216414 142.473283 
L 310.669741 144.163929 
L 311.123068 145.234647 
L 311.576395 139.526956 
L 311.803058 139.57487 
L 312.256385 129.880868 
L 313.389702 132.581514 
L 313.616365 132.422246 
L 313.843029 131.307525 
L 314.069692 131.058701 
L 314.296356 131.493662 
L 314.523019 129.119385 
L 314.749682 128.786044 
L 314.976346 124.799012 
L 315.203009 125.377451 
L 315.429673 125.261213 
L 316.109663 126.437118 
L 316.336326 126.954597 
L 316.789653 126.537146 
L 317.016317 126.638149 
L 317.24298 127.046797 
L 317.469643 126.767896 
L 317.696307 125.938649 
L 317.696307 125.938649 
" clip-path="url(#pea0a35b9b0)" style="fill: none; stroke-dasharray: 5.55,2.4; stroke-dashoffset: 0; stroke: #000000; stroke-width: 1.5"/>
   </g>
   <g id="line2d_48">
    <path d="M 64.059943 30.418044 
L 64.739933 26.420082 
L 64.966597 26.120808 
L 65.19326 25.619204 
L 65.419924 25.864066 
L 65.646587 25.450306 
L 65.873251 25.8479 
L 66.099914 26.783586 
L 66.326577 26.9726 
L 66.553241 26.6464 
L 66.779904 26.767492 
L 67.006568 26.594806 
L 67.459894 26.744411 
L 67.913221 26.710175 
L 68.139885 26.535829 
L 68.593212 26.782022 
L 68.819875 26.830832 
L 69.273202 26.61373 
L 69.499865 26.796079 
L 69.726529 26.67076 
L 70.859846 27.000363 
L 71.086509 27.160074 
L 71.313173 27.057088 
L 71.993163 27.194446 
L 72.44649 26.888188 
L 72.673153 26.779151 
L 73.353143 26.837427 
L 73.579807 26.779134 
L 74.033134 26.956792 
L 74.259797 26.894911 
L 74.713124 26.944357 
L 75.166451 26.761009 
L 75.619777 26.760477 
L 76.526431 26.627366 
L 76.753095 19.8 
L 76.979758 25.587568 
L 77.206421 25.951589 
L 77.433085 26.832357 
L 77.659748 27.133401 
L 78.113075 28.080844 
L 78.339738 27.214803 
L 78.566402 27.239559 
L 78.793065 27.140046 
L 79.019729 27.496003 
L 79.246392 27.315768 
L 79.926382 27.599879 
L 80.379709 28.276294 
L 80.833036 28.470405 
L 81.286363 28.495012 
L 81.513026 28.720093 
L 81.966353 28.772371 
L 82.193017 28.60645 
L 82.646343 28.801927 
L 82.873007 28.888327 
L 83.09967 28.826971 
L 83.77966 29.2224 
L 84.006324 29.536563 
L 84.232987 29.579368 
L 84.686314 29.855349 
L 85.592968 30.006132 
L 85.819631 29.953127 
L 86.046295 30.085884 
L 86.272958 30.045838 
L 86.499621 30.244041 
L 87.406275 30.270451 
L 87.632939 30.143561 
L 88.086265 30.203267 
L 88.539592 30.225733 
L 89.219582 30.422833 
L 89.446246 39.641801 
L 89.672909 42.289798 
L 89.899573 42.930774 
L 90.126236 42.392738 
L 90.3529 39.536221 
L 90.579563 41.193232 
L 90.806226 41.263426 
L 91.03289 40.397241 
L 91.259553 41.397098 
L 91.486217 41.105511 
L 91.71288 42.238498 
L 91.939543 41.417794 
L 92.166207 41.673576 
L 92.39287 41.06636 
L 92.846197 41.481178 
L 93.072861 41.334446 
L 93.299524 41.541618 
L 93.752851 41.536868 
L 93.979514 41.330876 
L 94.432841 41.25601 
L 94.659504 40.954525 
L 94.886168 41.041394 
L 95.339495 40.635532 
L 95.566158 41.00279 
L 96.019485 40.624171 
L 96.699475 41.18806 
L 96.926139 40.93217 
L 97.152802 40.99084 
L 97.379465 41.269638 
L 97.606129 41.018747 
L 97.832792 41.252573 
L 98.286119 41.160634 
L 98.512783 41.400687 
L 98.739446 41.404864 
L 99.419436 40.949987 
L 99.872763 40.765324 
L 101.459407 40.766404 
L 101.912734 40.776637 
L 102.139397 55.414221 
L 102.366061 53.194116 
L 102.592724 57.573015 
L 102.819387 57.250289 
L 103.272714 53.909535 
L 103.726041 53.262892 
L 103.952705 53.24676 
L 104.179368 52.916207 
L 104.406031 53.028704 
L 104.632695 51.856232 
L 104.859358 52.404126 
L 105.086022 52.525719 
L 105.766012 51.139747 
L 105.992675 51.063439 
L 106.219339 50.561251 
L 107.352656 50.737764 
L 107.579319 50.81458 
L 107.805983 50.714321 
L 108.259309 51.08842 
L 108.485973 51.191345 
L 108.712636 50.744 
L 108.9393 50.585791 
L 109.165963 50.790037 
L 109.392627 50.047697 
L 109.61929 50.1664 
L 110.072617 50.067231 
L 110.29928 50.079065 
L 110.525944 49.85343 
L 110.752607 49.898693 
L 110.979271 50.062595 
L 111.432597 49.639198 
L 112.112588 49.038055 
L 112.339251 49.147072 
L 112.565914 48.759397 
L 112.792578 48.603492 
L 113.019241 48.637352 
L 113.699232 48.050124 
L 114.152558 48.348618 
L 114.605885 48.295584 
L 115.059212 51.770166 
L 115.285875 58.154527 
L 115.739202 57.722193 
L 115.965866 56.171824 
L 116.192529 56.72631 
L 116.419193 57.889626 
L 116.872519 57.291075 
L 117.779173 58.710473 
L 118.005836 57.699292 
L 118.459163 59.39259 
L 118.685827 58.58478 
L 118.91249 59.210127 
L 119.139154 59.207783 
L 119.365817 59.469812 
L 119.819144 59.035202 
L 120.045807 58.845357 
L 120.725797 59.541478 
L 120.952461 59.383389 
L 121.405788 59.610118 
L 121.859115 59.30756 
L 122.085778 59.137766 
L 122.312441 58.644971 
L 122.539105 58.672236 
L 122.765768 58.197598 
L 122.992432 58.04516 
L 123.219095 58.304841 
L 123.445758 58.144797 
L 123.672422 58.366473 
L 123.899085 58.27942 
L 124.125749 58.519447 
L 124.352412 58.118986 
L 125.259066 58.005186 
L 125.712393 57.669775 
L 127.072373 57.452754 
L 127.299037 57.131544 
L 127.5257 50.081976 
L 127.979027 61.369532 
L 128.432354 64.567742 
L 128.659017 67.6849 
L 128.88568 68.255384 
L 129.112344 70.056784 
L 129.339007 69.117335 
L 129.792334 70.794651 
L 130.018998 70.984838 
L 130.245661 71.533412 
L 130.472324 71.485956 
L 130.925651 71.968979 
L 131.152315 72.089942 
L 131.605641 73.52269 
L 131.832305 73.833826 
L 132.058968 73.211043 
L 132.512295 74.598245 
L 132.738959 74.66651 
L 132.965622 73.735503 
L 133.192285 73.823168 
L 133.418949 73.178681 
L 133.645612 73.048027 
L 134.098939 73.565721 
L 134.325602 72.979469 
L 134.552266 72.893976 
L 134.778929 73.165581 
L 135.005593 72.477151 
L 135.232256 72.477284 
L 135.912246 70.182295 
L 136.13891 70.155713 
L 136.365573 69.713256 
L 136.8189 69.678606 
L 137.045563 69.910764 
L 137.49889 69.735825 
L 137.725554 69.968106 
L 137.952217 69.962459 
L 138.178881 69.252565 
L 138.405544 69.320176 
L 138.632207 69.68177 
L 138.858871 69.738058 
L 139.312198 69.560029 
L 139.538861 69.346268 
L 139.992188 69.161134 
L 140.218851 80.968885 
L 140.445515 77.053663 
L 140.672178 77.712475 
L 140.898842 81.646298 
L 141.125505 83.062691 
L 141.352168 81.361339 
L 141.578832 84.800865 
L 141.805495 80.401927 
L 142.032159 78.320254 
L 142.258822 78.128665 
L 142.485485 78.709916 
L 142.712149 76.927944 
L 142.938812 76.635411 
L 143.165476 75.526697 
L 143.392139 76.855631 
L 143.618803 73.378501 
L 143.845466 72.622156 
L 144.072129 72.391132 
L 144.298793 72.610798 
L 144.525456 73.584225 
L 144.75212 73.775731 
L 144.978783 72.754139 
L 145.205446 72.568197 
L 145.658773 72.803983 
L 145.885437 71.44982 
L 146.1121 72.167916 
L 146.338764 71.081499 
L 146.565427 71.142058 
L 146.79209 71.524925 
L 147.018754 70.991804 
L 147.472081 71.584521 
L 147.698744 71.456004 
L 147.925407 71.949774 
L 148.152071 71.458005 
L 148.378734 71.600903 
L 148.605398 71.444714 
L 149.058725 71.578585 
L 149.512051 72.118624 
L 149.738715 72.332288 
L 149.965378 72.001333 
L 150.418705 72.176706 
L 150.645368 71.950082 
L 150.872032 72.02773 
L 151.098695 71.691475 
L 151.778686 71.723584 
L 152.005349 72.139907 
L 152.232012 72.197943 
L 152.458676 71.723848 
L 152.685339 71.570451 
L 152.912003 92.364539 
L 153.138666 95.73676 
L 153.365329 88.978013 
L 153.591993 86.28024 
L 153.818656 87.449807 
L 154.04532 79.682407 
L 154.271983 68.044187 
L 154.498647 69.466313 
L 154.72531 68.174126 
L 154.951973 68.507411 
L 155.4053 63.606798 
L 155.631964 64.324497 
L 156.08529 63.967604 
L 156.538617 62.105493 
L 156.765281 61.678509 
L 157.445271 63.701307 
L 157.671934 63.915972 
L 157.898598 64.763948 
L 158.125261 65.059641 
L 158.351925 64.746617 
L 158.578588 65.152728 
L 158.805251 64.955057 
L 159.258578 65.871284 
L 159.711905 66.711828 
L 159.938569 67.092241 
L 160.165232 67.768856 
L 160.391895 68.030781 
L 160.618559 68.115151 
L 160.845222 67.590086 
L 161.298549 68.426596 
L 161.751876 68.663128 
L 162.431866 69.165882 
L 162.65853 69.061324 
L 162.885193 69.513534 
L 163.565183 70.112946 
L 163.791847 69.544172 
L 164.01851 69.879758 
L 164.245174 69.975868 
L 164.471837 70.342965 
L 164.6985 70.416852 
L 164.925164 69.715752 
L 165.151827 70.068694 
L 165.378491 70.179629 
L 165.831817 74.565528 
L 166.058481 81.47163 
L 166.285144 84.50205 
L 166.511808 82.924926 
L 166.965135 88.855628 
L 167.191798 90.949429 
L 167.418461 91.721697 
L 167.645125 91.583432 
L 168.325115 79.700129 
L 168.778442 80.975392 
L 169.005105 78.13616 
L 169.231769 77.970505 
L 169.458432 78.607744 
L 169.685096 78.61874 
L 169.911759 79.467609 
L 170.138422 79.869075 
L 170.365086 80.781126 
L 170.591749 79.602961 
L 171.271739 80.95923 
L 171.498403 81.157148 
L 171.95173 82.121675 
L 172.178393 81.951231 
L 172.405057 82.220831 
L 172.858383 81.865408 
L 173.085047 82.164655 
L 173.31171 81.806328 
L 173.538374 80.263213 
L 173.765037 79.898602 
L 173.9917 80.282662 
L 174.218364 80.354738 
L 174.445027 80.71113 
L 174.671691 80.320732 
L 174.898354 80.360463 
L 175.125018 80.272703 
L 175.351681 80.535148 
L 175.578344 80.140162 
L 176.031671 80.636052 
L 176.258335 80.990794 
L 176.484998 80.829359 
L 176.711661 80.503629 
L 176.938325 80.702643 
L 177.164988 79.965536 
L 177.618315 80.301265 
L 178.071642 80.089556 
L 178.298305 108.762467 
L 178.524969 97.435473 
L 178.751632 96.78276 
L 179.204959 93.2212 
L 179.431622 92.790938 
L 179.884949 95.619154 
L 180.111613 96.864632 
L 180.338276 96.778445 
L 180.56494 97.437562 
L 180.791603 97.410241 
L 181.018266 97.142248 
L 181.24493 94.727885 
L 181.471593 96.123865 
L 181.698257 96.033441 
L 181.92492 95.150817 
L 182.151583 96.233449 
L 182.378247 94.546887 
L 182.831574 89.939326 
L 183.058237 90.630397 
L 183.284901 90.896593 
L 183.511564 91.821883 
L 184.644881 93.540312 
L 185.324871 93.735567 
L 185.551535 93.682811 
L 185.778198 93.367757 
L 186.004862 93.892558 
L 186.231525 93.942672 
L 186.458188 94.30953 
L 186.684852 93.986781 
L 187.138179 94.444394 
L 187.818169 96.061537 
L 188.044832 95.977167 
L 188.271496 95.720046 
L 188.498159 96.244084 
L 188.951486 96.533721 
L 189.178149 94.986294 
L 189.404813 94.88569 
L 189.631476 95.157802 
L 189.85814 94.826205 
L 190.084803 95.110953 
L 190.311466 93.852679 
L 190.53813 93.760396 
L 190.764793 93.218162 
L 190.991457 98.476953 
L 191.21812 93.162354 
L 191.444784 99.903206 
L 191.89811 90.041205 
L 192.124774 94.334648 
L 192.351437 94.611262 
L 192.578101 94.085347 
L 192.804764 95.589092 
L 193.031427 95.331486 
L 193.258091 88.117391 
L 193.484754 86.094851 
L 193.711418 86.489 
L 193.938081 86.62943 
L 194.164745 83.925053 
L 194.391408 84.063151 
L 195.298062 87.686695 
L 195.524725 85.552804 
L 195.751388 86.526289 
L 196.204715 87.69669 
L 196.431379 88.629274 
L 196.884706 87.999034 
L 197.338032 88.980655 
L 197.564696 88.957 
L 197.791359 88.651723 
L 198.471349 89.762113 
L 198.698013 88.888501 
L 198.924676 89.15093 
L 199.15134 88.79687 
L 199.378003 89.157188 
L 199.604667 89.237376 
L 199.83133 88.619607 
L 200.057993 88.510638 
L 200.284657 87.77717 
L 200.51132 87.886558 
L 200.737984 88.184847 
L 200.964647 87.841135 
L 201.19131 88.116408 
L 201.644637 88.23622 
L 201.871301 88.501217 
L 202.097964 88.314479 
L 202.324628 88.537648 
L 202.551291 88.930328 
L 202.777954 88.869485 
L 203.004618 88.974753 
L 203.231281 88.593187 
L 203.457945 88.836016 
L 203.684608 137.664668 
L 203.911271 135.876894 
L 204.137935 122.733213 
L 204.364598 123.856574 
L 205.044589 129.621009 
L 205.271252 128.760175 
L 205.497915 112.00669 
L 205.724579 111.896563 
L 205.951242 114.137345 
L 206.177906 114.080669 
L 206.631232 116.470543 
L 207.311223 119.474769 
L 207.537886 117.093565 
L 207.76455 118.149559 
L 207.991213 114.482256 
L 208.671203 117.373446 
L 208.897867 118.13046 
L 209.12453 115.497265 
L 209.351193 115.437957 
L 209.577857 116.256455 
L 209.80452 114.689963 
L 210.031184 105.354046 
L 210.484511 106.672743 
L 210.711174 106.929515 
L 210.937837 99.334968 
L 211.391164 100.085952 
L 211.617828 99.15738 
L 211.844491 99.245776 
L 212.071154 98.50628 
L 212.297818 98.632018 
L 212.524481 99.121267 
L 212.751145 98.623365 
L 212.977808 98.9907 
L 213.204472 97.689381 
L 213.657798 97.37415 
L 213.884462 97.517753 
L 214.111125 97.189896 
L 214.337789 96.237405 
L 214.791115 96.775737 
L 215.017779 96.751035 
L 215.244442 96.935223 
L 215.697769 94.954192 
L 216.151096 94.601933 
L 216.377759 93.369635 
L 216.604423 84.509441 
L 216.831086 81.088438 
L 217.05775 57.589337 
L 217.964403 69.792577 
L 218.191067 71.510312 
L 218.41773 69.294342 
L 218.644394 69.065101 
L 219.09772 72.366481 
L 219.324384 73.979765 
L 219.551047 74.512331 
L 219.777711 75.78505 
L 220.004374 75.716894 
L 220.231038 76.975919 
L 220.684364 76.711644 
L 220.911028 77.332304 
L 221.137691 77.582003 
L 221.364355 78.039973 
L 221.817681 79.864461 
L 222.044345 79.707046 
L 222.271008 80.149162 
L 222.724335 80.165495 
L 222.950999 81.038694 
L 223.404325 81.678052 
L 223.630989 81.584562 
L 223.857652 80.374521 
L 224.084316 80.080236 
L 224.537642 81.10316 
L 224.764306 80.701913 
L 224.990969 80.840744 
L 225.217633 80.285399 
L 225.444296 80.408217 
L 225.67096 80.213188 
L 226.124286 80.496209 
L 226.804277 78.971171 
L 227.484267 79.647939 
L 227.71093 80.095653 
L 227.937594 80.07779 
L 228.164257 80.283954 
L 228.617584 79.385462 
L 228.844247 79.056742 
L 229.070911 74.03227 
L 229.297574 86.538711 
L 229.524238 92.887495 
L 229.750901 92.765505 
L 229.977564 92.317368 
L 230.430891 98.408075 
L 230.884218 103.327484 
L 231.110882 100.589408 
L 231.337545 102.663694 
L 231.564208 102.438044 
L 231.790872 102.523093 
L 232.244199 105.780557 
L 232.470862 105.322884 
L 232.697525 105.823789 
L 232.924189 104.824616 
L 233.150852 105.448804 
L 233.604179 107.571438 
L 233.830843 107.895679 
L 234.057506 106.786983 
L 234.284169 107.139136 
L 234.510833 106.334205 
L 234.737496 103.749038 
L 234.96416 104.247939 
L 235.190823 104.444892 
L 235.417486 105.01739 
L 235.64415 103.40075 
L 235.870813 103.261533 
L 236.097477 103.73876 
L 236.32414 103.353423 
L 236.550804 104.051529 
L 237.00413 104.690046 
L 237.230794 102.275879 
L 237.457457 101.861681 
L 237.684121 102.143091 
L 237.910784 102.141546 
L 238.137447 102.371394 
L 238.364111 102.774987 
L 238.590774 102.332005 
L 239.044101 103.218358 
L 239.270765 103.623264 
L 239.950755 104.064031 
L 240.177418 104.476937 
L 240.404082 104.11269 
L 240.857408 104.769322 
L 241.310735 105.554982 
L 241.537399 105.665159 
L 241.764062 163.609154 
L 241.990726 178.035186 
L 242.444052 113.144111 
L 242.670716 106.816275 
L 243.350706 115.313145 
L 243.577369 116.757977 
L 243.804033 117.14762 
L 244.484023 123.418574 
L 244.93735 126.249137 
L 245.61734 130.262113 
L 246.070667 132.046342 
L 246.29733 132.781732 
L 246.523994 129.684417 
L 246.750657 130.664857 
L 246.977321 129.630119 
L 247.203984 130.447343 
L 247.430648 129.39439 
L 248.110638 131.292368 
L 248.337301 130.396753 
L 248.563965 131.120811 
L 248.790628 130.795904 
L 249.017291 131.5023 
L 249.243955 131.629127 
L 249.923945 133.4768 
L 250.150609 133.744903 
L 250.377272 133.437532 
L 250.830599 134.473295 
L 251.057262 134.872448 
L 251.283926 135.020388 
L 251.510589 133.660043 
L 252.417243 135.216737 
L 252.643906 133.759294 
L 252.87057 133.427367 
L 253.097233 132.583883 
L 253.323896 132.715421 
L 253.55056 132.02108 
L 254.23055 133.079172 
L 254.457213 114.144941 
L 254.683877 117.913542 
L 254.91054 128.223096 
L 255.137204 132.04985 
L 255.363867 89.050668 
L 255.590531 89.91767 
L 256.270521 99.684943 
L 256.497184 96.842199 
L 256.723848 91.287211 
L 257.177174 94.686852 
L 257.403838 96.331694 
L 257.630501 96.016558 
L 257.857165 96.78481 
L 258.310492 99.505208 
L 258.537155 97.372427 
L 258.763818 98.612388 
L 258.990482 99.089068 
L 259.670472 101.960102 
L 260.123799 102.565134 
L 260.350462 103.087115 
L 260.803789 103.398448 
L 261.257116 104.743956 
L 261.483779 104.737821 
L 262.16377 106.315297 
L 262.617096 106.45614 
L 263.750414 109.391889 
L 263.977077 108.921305 
L 264.20374 109.398415 
L 264.430404 109.611164 
L 264.657067 110.175208 
L 264.883731 110.181978 
L 265.337057 111.147423 
L 265.563721 110.24368 
L 266.243711 111.662796 
L 266.470375 111.806634 
L 266.697038 112.256888 
L 266.923701 111.824767 
L 267.150365 271.8 
L 267.377028 186.906334 
L 268.283682 140.751948 
L 268.510345 136.147958 
L 268.737009 137.807261 
L 268.963672 121.212685 
L 269.870326 128.506273 
L 270.323653 130.796627 
L 270.776979 132.434634 
L 271.003643 132.127938 
L 271.230306 130.864584 
L 271.45697 126.47597 
L 272.13696 129.625507 
L 272.590287 131.045512 
L 272.81695 131.236315 
L 273.043614 130.650139 
L 273.950267 133.65345 
L 274.176931 133.601866 
L 274.856921 135.725951 
L 275.083584 134.882541 
L 275.310248 135.426285 
L 275.536911 135.588441 
L 275.763575 136.047899 
L 275.990238 131.95062 
L 276.216902 131.955045 
L 276.896892 133.485966 
L 277.123555 132.916665 
L 277.350219 130.705853 
L 277.803545 131.473622 
L 278.710199 133.323577 
L 278.936863 132.905813 
L 279.163526 132.140732 
L 279.390189 132.608941 
L 279.616853 132.175886 
L 279.843516 226.212389 
L 280.07018 154.515796 
L 280.523506 171.367939 
L 280.75017 155.561371 
L 280.976833 155.982218 
L 281.203497 157.796728 
L 281.43016 155.615534 
L 281.656824 155.949901 
L 281.883487 158.617679 
L 282.11015 158.495333 
L 282.336814 153.572345 
L 282.790141 156.462855 
L 283.243467 159.34866 
L 283.923458 163.195489 
L 284.150121 162.869746 
L 284.376785 161.392921 
L 284.603448 162.541183 
L 284.830111 160.101378 
L 285.510102 162.60115 
L 285.736765 162.666075 
L 286.870082 166.459327 
L 287.096746 167.225901 
L 287.323409 166.456013 
L 288.230063 168.802851 
L 288.456726 163.770022 
L 288.683389 164.077149 
L 288.910053 164.693394 
L 289.36338 164.80838 
L 289.590043 165.085968 
L 290.04337 166.136363 
L 290.496697 166.334242 
L 290.72336 166.784136 
L 290.950024 166.821125 
L 291.176687 166.303024 
L 291.40335 166.439628 
L 291.630014 166.75111 
L 291.856677 166.606776 
L 292.310004 167.415173 
L 292.536668 177.630591 
L 292.763331 193.062633 
L 292.989994 199.112004 
L 293.216658 199.68847 
L 293.669985 205.777655 
L 293.896648 206.369362 
L 294.349975 158.344422 
L 294.803302 163.129274 
L 295.029965 164.833708 
L 295.256629 148.18481 
L 295.709955 151.603393 
L 295.936619 152.068477 
L 296.843272 157.275537 
L 297.296599 159.222943 
L 297.523263 154.938196 
L 297.97659 156.696781 
L 298.203253 156.416071 
L 298.65658 158.065034 
L 298.883243 156.40956 
L 299.109907 152.84392 
L 299.33657 152.921278 
L 300.01656 154.920647 
L 300.243224 150.8506 
L 301.149877 153.587143 
L 301.376541 153.913513 
L 301.603204 153.956894 
L 302.283194 155.351781 
L 302.509858 155.741681 
L 302.736521 152.664209 
L 302.963185 152.98946 
L 303.189848 147.858799 
L 303.643175 148.707568 
L 303.869838 138.384223 
L 304.549829 139.770588 
L 304.776492 136.697545 
L 305.003155 136.840767 
L 305.229819 106.078689 
L 305.456482 123.916273 
L 305.683146 116.844886 
L 305.909809 123.940541 
L 306.136473 105.477571 
L 306.589799 110.75693 
L 306.816463 106.616203 
L 307.043126 109.571575 
L 307.26979 110.48722 
L 307.496453 112.669281 
L 307.723116 110.193354 
L 308.403107 114.739753 
L 308.62977 115.899061 
L 308.856434 114.761999 
L 309.30976 117.045351 
L 309.536424 117.40009 
L 309.763087 118.313546 
L 309.989751 116.719097 
L 310.216414 116.941192 
L 310.443077 117.886596 
L 310.669741 118.344215 
L 310.896404 119.245927 
L 311.123068 116.896688 
L 311.576395 117.378187 
L 311.803058 116.807022 
L 312.029721 117.144077 
L 312.256385 117.68521 
L 312.483048 117.581108 
L 312.709712 118.156157 
L 312.936375 118.233351 
L 313.163038 117.07776 
L 313.389702 117.329957 
L 313.616365 117.333082 
L 314.069692 118.01276 
L 314.976346 120.303922 
L 315.882999 122.244065 
L 316.109663 122.68273 
L 316.336326 121.212994 
L 316.789653 122.178267 
L 317.016317 122.312693 
L 317.24298 122.114 
L 317.469643 122.272472 
L 317.696307 122.694608 
L 317.696307 122.694608 
" clip-path="url(#pea0a35b9b0)" style="fill: none; stroke: #000000; stroke-width: 1.5; stroke-linecap: square"/>
   </g>
   <g id="patch_3">
    <path d="M 51.378125 284.4 
L 51.378125 7.2 
" style="fill: none; stroke: #000000; stroke-width: 0.8; stroke-linejoin: miter; stroke-linecap: square"/>
   </g>
   <g id="patch_4">
    <path d="M 330.378125 284.4 
L 330.378125 7.2 
" style="fill: none; stroke: #000000; stroke-width: 0.8; stroke-linejoin: miter; stroke-linecap: square"/>
   </g>
   <g id="patch_5">
    <path d="M 51.378125 284.4 
L 330.378125 284.4 
" style="fill: none; stroke: #000000; stroke-width: 0.8; stroke-linejoin: miter; stroke-linecap: square"/>
   </g>
   <g id="patch_6">
    <path d="M 51.378125 7.2 
L 330.378125 7.2 
" style="fill: none; stroke: #000000; stroke-width: 0.8; stroke-linejoin: miter; stroke-linecap: square"/>
   </g>
   <g id="legend_1">
    <g id="patch_7">
     <path d="M 176.657813 44.55625 
L 323.378125 44.55625 
Q 325.378125 44.55625 325.378125 42.55625 
L 325.378125 14.2 
Q 325.378125 12.2 323.378125 12.2 
L 176.657813 12.2 
Q 174.657813 12.2 174.657813 14.2 
L 174.657813 42.55625 
Q 174.657813 44.55625 176.657813 44.55625 
z
" style="fill: #ffffff; opacity: 0.8; stroke: #cccccc; stroke-linejoin: miter"/>
    </g>
    <g id="line2d_49">
     <path d="M 178.657813 20.298437 
L 188.657813 20.298437 
L 198.657813 20.298437 
" style="fill: none; stroke-dasharray: 5.55,2.4; stroke-dashoffset: 0; stroke: #000000; stroke-width: 1.5"/>
    </g>
    <g id="text_14">
     <!-- optimal initial bias -->
     <g transform="translate(206.657813 23.798437) scale(0.1 -0.1)">
      <defs>
       <path id="DejaVuSans-69" d="M 603 3500 
L 1178 3500 
L 1178 0 
L 603 0 
L 603 3500 
z
M 603 4863 
L 1178 4863 
L 1178 4134 
L 603 4134 
L 603 4863 
z
" transform="scale(0.015625)"/>
       <path id="DejaVuSans-6d" d="M 3328 2828 
Q 3544 3216 3844 3400 
Q 4144 3584 4550 3584 
Q 5097 3584 5394 3201 
Q 5691 2819 5691 2113 
L 5691 0 
L 5113 0 
L 5113 2094 
Q 5113 2597 4934 2840 
Q 4756 3084 4391 3084 
Q 3944 3084 3684 2787 
Q 3425 2491 3425 1978 
L 3425 0 
L 2847 0 
L 2847 2094 
Q 2847 2600 2669 2842 
Q 2491 3084 2119 3084 
Q 1678 3084 1418 2786 
Q 1159 2488 1159 1978 
L 1159 0 
L 581 0 
L 581 3500 
L 1159 3500 
L 1159 2956 
Q 1356 3278 1631 3431 
Q 1906 3584 2284 3584 
Q 2666 3584 2933 3390 
Q 3200 3197 3328 2828 
z
" transform="scale(0.015625)"/>
       <path id="DejaVuSans-61" d="M 2194 1759 
Q 1497 1759 1228 1600 
Q 959 1441 959 1056 
Q 959 750 1161 570 
Q 1363 391 1709 391 
Q 2188 391 2477 730 
Q 2766 1069 2766 1631 
L 2766 1759 
L 2194 1759 
z
M 3341 1997 
L 3341 0 
L 2766 0 
L 2766 531 
Q 2569 213 2275 61 
Q 1981 -91 1556 -91 
Q 1019 -91 701 211 
Q 384 513 384 1019 
Q 384 1609 779 1909 
Q 1175 2209 1959 2209 
L 2766 2209 
L 2766 2266 
Q 2766 2663 2505 2880 
Q 2244 3097 1772 3097 
Q 1472 3097 1187 3025 
Q 903 2953 641 2809 
L 641 3341 
Q 956 3463 1253 3523 
Q 1550 3584 1831 3584 
Q 2591 3584 2966 3190 
Q 3341 2797 3341 1997 
z
" transform="scale(0.015625)"/>
       <path id="DejaVuSans-6c" d="M 603 4863 
L 1178 4863 
L 1178 0 
L 603 0 
L 603 4863 
z
" transform="scale(0.015625)"/>
       <path id="DejaVuSans-20" transform="scale(0.015625)"/>
       <path id="DejaVuSans-6e" d="M 3513 2113 
L 3513 0 
L 2938 0 
L 2938 2094 
Q 2938 2591 2744 2837 
Q 2550 3084 2163 3084 
Q 1697 3084 1428 2787 
Q 1159 2491 1159 1978 
L 1159 0 
L 581 0 
L 581 3500 
L 1159 3500 
L 1159 2956 
Q 1366 3272 1645 3428 
Q 1925 3584 2291 3584 
Q 2894 3584 3203 3211 
Q 3513 2838 3513 2113 
z
" transform="scale(0.015625)"/>
       <path id="DejaVuSans-62" d="M 3116 1747 
Q 3116 2381 2855 2742 
Q 2594 3103 2138 3103 
Q 1681 3103 1420 2742 
Q 1159 2381 1159 1747 
Q 1159 1113 1420 752 
Q 1681 391 2138 391 
Q 2594 391 2855 752 
Q 3116 1113 3116 1747 
z
M 1159 2969 
Q 1341 3281 1617 3432 
Q 1894 3584 2278 3584 
Q 2916 3584 3314 3078 
Q 3713 2572 3713 1747 
Q 3713 922 3314 415 
Q 2916 -91 2278 -91 
Q 1894 -91 1617 61 
Q 1341 213 1159 525 
L 1159 0 
L 581 0 
L 581 4863 
L 1159 4863 
L 1159 2969 
z
" transform="scale(0.015625)"/>
      </defs>
      <use xlink:href="#DejaVuSans-6f"/>
      <use xlink:href="#DejaVuSans-70" x="61.181641"/>
      <use xlink:href="#DejaVuSans-74" x="124.658203"/>
      <use xlink:href="#DejaVuSans-69" x="163.867188"/>
      <use xlink:href="#DejaVuSans-6d" x="191.650391"/>
      <use xlink:href="#DejaVuSans-61" x="289.0625"/>
      <use xlink:href="#DejaVuSans-6c" x="350.341797"/>
      <use xlink:href="#DejaVuSans-20" x="378.125"/>
      <use xlink:href="#DejaVuSans-69" x="409.912109"/>
      <use xlink:href="#DejaVuSans-6e" x="437.695312"/>
      <use xlink:href="#DejaVuSans-69" x="501.074219"/>
      <use xlink:href="#DejaVuSans-74" x="528.857422"/>
      <use xlink:href="#DejaVuSans-69" x="568.066406"/>
      <use xlink:href="#DejaVuSans-61" x="595.849609"/>
      <use xlink:href="#DejaVuSans-6c" x="657.128906"/>
      <use xlink:href="#DejaVuSans-20" x="684.912109"/>
      <use xlink:href="#DejaVuSans-62" x="716.699219"/>
      <use xlink:href="#DejaVuSans-69" x="780.175781"/>
      <use xlink:href="#DejaVuSans-61" x="807.958984"/>
      <use xlink:href="#DejaVuSans-73" x="869.238281"/>
     </g>
    </g>
    <g id="line2d_50">
     <path d="M 178.657813 34.976562 
L 188.657813 34.976562 
L 198.657813 34.976562 
" style="fill: none; stroke: #000000; stroke-width: 1.5; stroke-linecap: square"/>
    </g>
    <g id="text_15">
     <!-- non-optimal initial bias -->
     <g transform="translate(206.657813 38.476562) scale(0.1 -0.1)">
      <defs>
       <path id="DejaVuSans-2d" d="M 313 2009 
L 1997 2009 
L 1997 1497 
L 313 1497 
L 313 2009 
z
" transform="scale(0.015625)"/>
      </defs>
      <use xlink:href="#DejaVuSans-6e"/>
      <use xlink:href="#DejaVuSans-6f" x="63.378906"/>
      <use xlink:href="#DejaVuSans-6e" x="124.560547"/>
      <use xlink:href="#DejaVuSans-2d" x="187.939453"/>
      <use xlink:href="#DejaVuSans-6f" x="225.898438"/>
      <use xlink:href="#DejaVuSans-70" x="287.080078"/>
      <use xlink:href="#DejaVuSans-74" x="350.556641"/>
      <use xlink:href="#DejaVuSans-69" x="389.765625"/>
      <use xlink:href="#DejaVuSans-6d" x="417.548828"/>
      <use xlink:href="#DejaVuSans-61" x="514.960938"/>
      <use xlink:href="#DejaVuSans-6c" x="576.240234"/>
      <use xlink:href="#DejaVuSans-20" x="604.023438"/>
      <use xlink:href="#DejaVuSans-69" x="635.810547"/>
      <use xlink:href="#DejaVuSans-6e" x="663.59375"/>
      <use xlink:href="#DejaVuSans-69" x="726.972656"/>
      <use xlink:href="#DejaVuSans-74" x="754.755859"/>
      <use xlink:href="#DejaVuSans-69" x="793.964844"/>
      <use xlink:href="#DejaVuSans-61" x="821.748047"/>
      <use xlink:href="#DejaVuSans-6c" x="883.027344"/>
      <use xlink:href="#DejaVuSans-20" x="910.810547"/>
      <use xlink:href="#DejaVuSans-62" x="942.597656"/>
      <use xlink:href="#DejaVuSans-69" x="1006.074219"/>
      <use xlink:href="#DejaVuSans-61" x="1033.857422"/>
      <use xlink:href="#DejaVuSans-73" x="1095.136719"/>
     </g>
    </g>
   </g>
  </g>
 </g>
 <defs>
  <clipPath id="pea0a35b9b0">
   <rect x="51.378125" y="7.2" width="279" height="277.2"/>
  </clipPath>
 </defs>
</svg>
