<?xml version="1.0" encoding="utf-8" standalone="no"?>
<!DOCTYPE svg PUBLIC "-//W3C//DTD SVG 1.1//EN"
  "http://www.w3.org/Graphics/SVG/1.1/DTD/svg11.dtd">
<svg xmlns:xlink="http://www.w3.org/1999/xlink" width="337.578125pt" height="321.95625pt" viewBox="0 0 337.578125 321.95625" xmlns="http://www.w3.org/2000/svg" version="1.1">
 <metadata>
  <rdf:RDF xmlns:dc="http://purl.org/dc/elements/1.1/" xmlns:cc="http://creativecommons.org/ns#" xmlns:rdf="http://www.w3.org/1999/02/22-rdf-syntax-ns#">
   <cc:Work>
    <dc:type rdf:resource="http://purl.org/dc/dcmitype/StillImage"/>
    <dc:date>2024-04-15T11:23:55.281502</dc:date>
    <dc:format>image/svg+xml</dc:format>
    <dc:creator>
     <cc:Agent>
      <dc:title>Matplotlib v3.8.3, https://matplotlib.org/</dc:title>
     </cc:Agent>
    </dc:creator>
   </cc:Work>
  </rdf:RDF>
 </metadata>
 <defs>
  <style type="text/css">*{stroke-linejoin: round; stroke-linecap: butt}</style>
 </defs>
 <g id="figure_1">
  <g id="patch_1">
   <path d="M 0 321.95625 
L 337.578125 321.95625 
L 337.578125 0 
L 0 0 
L 0 321.95625 
z
" style="fill: none"/>
  </g>
  <g id="axes_1">
   <g id="patch_2">
    <path d="M 51.378125 284.4 
L 330.378125 284.4 
L 330.378125 7.2 
L 51.378125 7.2 
L 51.378125 284.4 
z
" style="fill: none"/>
   </g>
   <g id="matplotlib.axis_1">
    <g id="xtick_1">
     <g id="line2d_1">
      <defs>
       <path id="m4191c66d26" d="M 0 0 
L 0 3.5 
" style="stroke: #000000; stroke-width: 0.8"/>
      </defs>
      <g>
       <use xlink:href="#m4191c66d26" x="64.059943" y="284.4" style="stroke: #000000; stroke-width: 0.8"/>
      </g>
     </g>
     <g id="text_1">
      <!-- 0 -->
      <g transform="translate(60.878693 298.998438) scale(0.1 -0.1)">
       <defs>
        <path id="DejaVuSans-30" d="M 2034 4250 
Q 1547 4250 1301 3770 
Q 1056 3291 1056 2328 
Q 1056 1369 1301 889 
Q 1547 409 2034 409 
Q 2525 409 2770 889 
Q 3016 1369 3016 2328 
Q 3016 3291 2770 3770 
Q 2525 4250 2034 4250 
z
M 2034 4750 
Q 2819 4750 3233 4129 
Q 3647 3509 3647 2328 
Q 3647 1150 3233 529 
Q 2819 -91 2034 -91 
Q 1250 -91 836 529 
Q 422 1150 422 2328 
Q 422 3509 836 4129 
Q 1250 4750 2034 4750 
z
" transform="scale(0.015625)"/>
       </defs>
       <use xlink:href="#DejaVuSans-30"/>
      </g>
     </g>
    </g>
    <g id="xtick_2">
     <g id="line2d_2">
      <g>
       <use xlink:href="#m4191c66d26" x="109.392627" y="284.4" style="stroke: #000000; stroke-width: 0.8"/>
      </g>
     </g>
     <g id="text_2">
      <!-- 200 -->
      <g transform="translate(99.848877 298.998438) scale(0.1 -0.1)">
       <defs>
        <path id="DejaVuSans-32" d="M 1228 531 
L 3431 531 
L 3431 0 
L 469 0 
L 469 531 
Q 828 903 1448 1529 
Q 2069 2156 2228 2338 
Q 2531 2678 2651 2914 
Q 2772 3150 2772 3378 
Q 2772 3750 2511 3984 
Q 2250 4219 1831 4219 
Q 1534 4219 1204 4116 
Q 875 4013 500 3803 
L 500 4441 
Q 881 4594 1212 4672 
Q 1544 4750 1819 4750 
Q 2544 4750 2975 4387 
Q 3406 4025 3406 3419 
Q 3406 3131 3298 2873 
Q 3191 2616 2906 2266 
Q 2828 2175 2409 1742 
Q 1991 1309 1228 531 
z
" transform="scale(0.015625)"/>
       </defs>
       <use xlink:href="#DejaVuSans-32"/>
       <use xlink:href="#DejaVuSans-30" x="63.623047"/>
       <use xlink:href="#DejaVuSans-30" x="127.246094"/>
      </g>
     </g>
    </g>
    <g id="xtick_3">
     <g id="line2d_3">
      <g>
       <use xlink:href="#m4191c66d26" x="154.72531" y="284.4" style="stroke: #000000; stroke-width: 0.8"/>
      </g>
     </g>
     <g id="text_3">
      <!-- 400 -->
      <g transform="translate(145.18156 298.998438) scale(0.1 -0.1)">
       <defs>
        <path id="DejaVuSans-34" d="M 2419 4116 
L 825 1625 
L 2419 1625 
L 2419 4116 
z
M 2253 4666 
L 3047 4666 
L 3047 1625 
L 3713 1625 
L 3713 1100 
L 3047 1100 
L 3047 0 
L 2419 0 
L 2419 1100 
L 313 1100 
L 313 1709 
L 2253 4666 
z
" transform="scale(0.015625)"/>
       </defs>
       <use xlink:href="#DejaVuSans-34"/>
       <use xlink:href="#DejaVuSans-30" x="63.623047"/>
       <use xlink:href="#DejaVuSans-30" x="127.246094"/>
      </g>
     </g>
    </g>
    <g id="xtick_4">
     <g id="line2d_4">
      <g>
       <use xlink:href="#m4191c66d26" x="200.057993" y="284.4" style="stroke: #000000; stroke-width: 0.8"/>
      </g>
     </g>
     <g id="text_4">
      <!-- 600 -->
      <g transform="translate(190.514243 298.998438) scale(0.1 -0.1)">
       <defs>
        <path id="DejaVuSans-36" d="M 2113 2584 
Q 1688 2584 1439 2293 
Q 1191 2003 1191 1497 
Q 1191 994 1439 701 
Q 1688 409 2113 409 
Q 2538 409 2786 701 
Q 3034 994 3034 1497 
Q 3034 2003 2786 2293 
Q 2538 2584 2113 2584 
z
M 3366 4563 
L 3366 3988 
Q 3128 4100 2886 4159 
Q 2644 4219 2406 4219 
Q 1781 4219 1451 3797 
Q 1122 3375 1075 2522 
Q 1259 2794 1537 2939 
Q 1816 3084 2150 3084 
Q 2853 3084 3261 2657 
Q 3669 2231 3669 1497 
Q 3669 778 3244 343 
Q 2819 -91 2113 -91 
Q 1303 -91 875 529 
Q 447 1150 447 2328 
Q 447 3434 972 4092 
Q 1497 4750 2381 4750 
Q 2619 4750 2861 4703 
Q 3103 4656 3366 4563 
z
" transform="scale(0.015625)"/>
       </defs>
       <use xlink:href="#DejaVuSans-36"/>
       <use xlink:href="#DejaVuSans-30" x="63.623047"/>
       <use xlink:href="#DejaVuSans-30" x="127.246094"/>
      </g>
     </g>
    </g>
    <g id="xtick_5">
     <g id="line2d_5">
      <g>
       <use xlink:href="#m4191c66d26" x="245.390677" y="284.4" style="stroke: #000000; stroke-width: 0.8"/>
      </g>
     </g>
     <g id="text_5">
      <!-- 800 -->
      <g transform="translate(235.846927 298.998438) scale(0.1 -0.1)">
       <defs>
        <path id="DejaVuSans-38" d="M 2034 2216 
Q 1584 2216 1326 1975 
Q 1069 1734 1069 1313 
Q 1069 891 1326 650 
Q 1584 409 2034 409 
Q 2484 409 2743 651 
Q 3003 894 3003 1313 
Q 3003 1734 2745 1975 
Q 2488 2216 2034 2216 
z
M 1403 2484 
Q 997 2584 770 2862 
Q 544 3141 544 3541 
Q 544 4100 942 4425 
Q 1341 4750 2034 4750 
Q 2731 4750 3128 4425 
Q 3525 4100 3525 3541 
Q 3525 3141 3298 2862 
Q 3072 2584 2669 2484 
Q 3125 2378 3379 2068 
Q 3634 1759 3634 1313 
Q 3634 634 3220 271 
Q 2806 -91 2034 -91 
Q 1263 -91 848 271 
Q 434 634 434 1313 
Q 434 1759 690 2068 
Q 947 2378 1403 2484 
z
M 1172 3481 
Q 1172 3119 1398 2916 
Q 1625 2713 2034 2713 
Q 2441 2713 2670 2916 
Q 2900 3119 2900 3481 
Q 2900 3844 2670 4047 
Q 2441 4250 2034 4250 
Q 1625 4250 1398 4047 
Q 1172 3844 1172 3481 
z
" transform="scale(0.015625)"/>
       </defs>
       <use xlink:href="#DejaVuSans-38"/>
       <use xlink:href="#DejaVuSans-30" x="63.623047"/>
       <use xlink:href="#DejaVuSans-30" x="127.246094"/>
      </g>
     </g>
    </g>
    <g id="xtick_6">
     <g id="line2d_6">
      <g>
       <use xlink:href="#m4191c66d26" x="290.72336" y="284.4" style="stroke: #000000; stroke-width: 0.8"/>
      </g>
     </g>
     <g id="text_6">
      <!-- 1000 -->
      <g transform="translate(277.99836 298.998438) scale(0.1 -0.1)">
       <defs>
        <path id="DejaVuSans-31" d="M 794 531 
L 1825 531 
L 1825 4091 
L 703 3866 
L 703 4441 
L 1819 4666 
L 2450 4666 
L 2450 531 
L 3481 531 
L 3481 0 
L 794 0 
L 794 531 
z
" transform="scale(0.015625)"/>
       </defs>
       <use xlink:href="#DejaVuSans-31"/>
       <use xlink:href="#DejaVuSans-30" x="63.623047"/>
       <use xlink:href="#DejaVuSans-30" x="127.246094"/>
       <use xlink:href="#DejaVuSans-30" x="190.869141"/>
      </g>
     </g>
    </g>
    <g id="text_7">
     <!-- Step -->
     <g transform="translate(179.492969 312.676562) scale(0.1 -0.1)">
      <defs>
       <path id="DejaVuSans-53" d="M 3425 4513 
L 3425 3897 
Q 3066 4069 2747 4153 
Q 2428 4238 2131 4238 
Q 1616 4238 1336 4038 
Q 1056 3838 1056 3469 
Q 1056 3159 1242 3001 
Q 1428 2844 1947 2747 
L 2328 2669 
Q 3034 2534 3370 2195 
Q 3706 1856 3706 1288 
Q 3706 609 3251 259 
Q 2797 -91 1919 -91 
Q 1588 -91 1214 -16 
Q 841 59 441 206 
L 441 856 
Q 825 641 1194 531 
Q 1563 422 1919 422 
Q 2459 422 2753 634 
Q 3047 847 3047 1241 
Q 3047 1584 2836 1778 
Q 2625 1972 2144 2069 
L 1759 2144 
Q 1053 2284 737 2584 
Q 422 2884 422 3419 
Q 422 4038 858 4394 
Q 1294 4750 2059 4750 
Q 2388 4750 2728 4690 
Q 3069 4631 3425 4513 
z
" transform="scale(0.015625)"/>
       <path id="DejaVuSans-74" d="M 1172 4494 
L 1172 3500 
L 2356 3500 
L 2356 3053 
L 1172 3053 
L 1172 1153 
Q 1172 725 1289 603 
Q 1406 481 1766 481 
L 2356 481 
L 2356 0 
L 1766 0 
Q 1100 0 847 248 
Q 594 497 594 1153 
L 594 3053 
L 172 3053 
L 172 3500 
L 594 3500 
L 594 4494 
L 1172 4494 
z
" transform="scale(0.015625)"/>
       <path id="DejaVuSans-65" d="M 3597 1894 
L 3597 1613 
L 953 1613 
Q 991 1019 1311 708 
Q 1631 397 2203 397 
Q 2534 397 2845 478 
Q 3156 559 3463 722 
L 3463 178 
Q 3153 47 2828 -22 
Q 2503 -91 2169 -91 
Q 1331 -91 842 396 
Q 353 884 353 1716 
Q 353 2575 817 3079 
Q 1281 3584 2069 3584 
Q 2775 3584 3186 3129 
Q 3597 2675 3597 1894 
z
M 3022 2063 
Q 3016 2534 2758 2815 
Q 2500 3097 2075 3097 
Q 1594 3097 1305 2825 
Q 1016 2553 972 2059 
L 3022 2063 
z
" transform="scale(0.015625)"/>
       <path id="DejaVuSans-70" d="M 1159 525 
L 1159 -1331 
L 581 -1331 
L 581 3500 
L 1159 3500 
L 1159 2969 
Q 1341 3281 1617 3432 
Q 1894 3584 2278 3584 
Q 2916 3584 3314 3078 
Q 3713 2572 3713 1747 
Q 3713 922 3314 415 
Q 2916 -91 2278 -91 
Q 1894 -91 1617 61 
Q 1341 213 1159 525 
z
M 3116 1747 
Q 3116 2381 2855 2742 
Q 2594 3103 2138 3103 
Q 1681 3103 1420 2742 
Q 1159 2381 1159 1747 
Q 1159 1113 1420 752 
Q 1681 391 2138 391 
Q 2594 391 2855 752 
Q 3116 1113 3116 1747 
z
" transform="scale(0.015625)"/>
      </defs>
      <use xlink:href="#DejaVuSans-53"/>
      <use xlink:href="#DejaVuSans-74" x="63.476562"/>
      <use xlink:href="#DejaVuSans-65" x="102.685547"/>
      <use xlink:href="#DejaVuSans-70" x="164.208984"/>
     </g>
    </g>
   </g>
   <g id="matplotlib.axis_2">
    <g id="ytick_1">
     <g id="line2d_7">
      <defs>
       <path id="mb813595969" d="M 0 0 
L -3.5 0 
" style="stroke: #000000; stroke-width: 0.8"/>
      </defs>
      <g>
       <use xlink:href="#mb813595969" x="51.378125" y="265.795598" style="stroke: #000000; stroke-width: 0.8"/>
      </g>
     </g>
     <g id="text_8">
      <!-- $\mathdefault{10^{-4}}$ -->
      <g transform="translate(20.878125 269.594817) scale(0.1 -0.1)">
       <defs>
        <path id="DejaVuSans-2212" d="M 678 2272 
L 4684 2272 
L 4684 1741 
L 678 1741 
L 678 2272 
z
" transform="scale(0.015625)"/>
       </defs>
       <use xlink:href="#DejaVuSans-31" transform="translate(0 0.684375)"/>
       <use xlink:href="#DejaVuSans-30" transform="translate(63.623047 0.684375)"/>
       <use xlink:href="#DejaVuSans-2212" transform="translate(128.203125 38.965625) scale(0.7)"/>
       <use xlink:href="#DejaVuSans-34" transform="translate(186.855469 38.965625) scale(0.7)"/>
      </g>
     </g>
    </g>
    <g id="ytick_2">
     <g id="line2d_8">
      <g>
       <use xlink:href="#mb813595969" x="51.378125" y="207.131825" style="stroke: #000000; stroke-width: 0.8"/>
      </g>
     </g>
     <g id="text_9">
      <!-- $\mathdefault{10^{-3}}$ -->
      <g transform="translate(20.878125 210.931044) scale(0.1 -0.1)">
       <defs>
        <path id="DejaVuSans-33" d="M 2597 2516 
Q 3050 2419 3304 2112 
Q 3559 1806 3559 1356 
Q 3559 666 3084 287 
Q 2609 -91 1734 -91 
Q 1441 -91 1130 -33 
Q 819 25 488 141 
L 488 750 
Q 750 597 1062 519 
Q 1375 441 1716 441 
Q 2309 441 2620 675 
Q 2931 909 2931 1356 
Q 2931 1769 2642 2001 
Q 2353 2234 1838 2234 
L 1294 2234 
L 1294 2753 
L 1863 2753 
Q 2328 2753 2575 2939 
Q 2822 3125 2822 3475 
Q 2822 3834 2567 4026 
Q 2313 4219 1838 4219 
Q 1578 4219 1281 4162 
Q 984 4106 628 3988 
L 628 4550 
Q 988 4650 1302 4700 
Q 1616 4750 1894 4750 
Q 2613 4750 3031 4423 
Q 3450 4097 3450 3541 
Q 3450 3153 3228 2886 
Q 3006 2619 2597 2516 
z
" transform="scale(0.015625)"/>
       </defs>
       <use xlink:href="#DejaVuSans-31" transform="translate(0 0.765625)"/>
       <use xlink:href="#DejaVuSans-30" transform="translate(63.623047 0.765625)"/>
       <use xlink:href="#DejaVuSans-2212" transform="translate(128.203125 39.046875) scale(0.7)"/>
       <use xlink:href="#DejaVuSans-33" transform="translate(186.855469 39.046875) scale(0.7)"/>
      </g>
     </g>
    </g>
    <g id="ytick_3">
     <g id="line2d_9">
      <g>
       <use xlink:href="#mb813595969" x="51.378125" y="148.468052" style="stroke: #000000; stroke-width: 0.8"/>
      </g>
     </g>
     <g id="text_10">
      <!-- $\mathdefault{10^{-2}}$ -->
      <g transform="translate(20.878125 152.267271) scale(0.1 -0.1)">
       <use xlink:href="#DejaVuSans-31" transform="translate(0 0.765625)"/>
       <use xlink:href="#DejaVuSans-30" transform="translate(63.623047 0.765625)"/>
       <use xlink:href="#DejaVuSans-2212" transform="translate(128.203125 39.046875) scale(0.7)"/>
       <use xlink:href="#DejaVuSans-32" transform="translate(186.855469 39.046875) scale(0.7)"/>
      </g>
     </g>
    </g>
    <g id="ytick_4">
     <g id="line2d_10">
      <g>
       <use xlink:href="#mb813595969" x="51.378125" y="89.804279" style="stroke: #000000; stroke-width: 0.8"/>
      </g>
     </g>
     <g id="text_11">
      <!-- $\mathdefault{10^{-1}}$ -->
      <g transform="translate(20.878125 93.603498) scale(0.1 -0.1)">
       <use xlink:href="#DejaVuSans-31" transform="translate(0 0.684375)"/>
       <use xlink:href="#DejaVuSans-30" transform="translate(63.623047 0.684375)"/>
       <use xlink:href="#DejaVuSans-2212" transform="translate(128.203125 38.965625) scale(0.7)"/>
       <use xlink:href="#DejaVuSans-31" transform="translate(186.855469 38.965625) scale(0.7)"/>
      </g>
     </g>
    </g>
    <g id="ytick_5">
     <g id="line2d_11">
      <g>
       <use xlink:href="#mb813595969" x="51.378125" y="31.140506" style="stroke: #000000; stroke-width: 0.8"/>
      </g>
     </g>
     <g id="text_12">
      <!-- $\mathdefault{10^{0}}$ -->
      <g transform="translate(26.778125 34.939724) scale(0.1 -0.1)">
       <use xlink:href="#DejaVuSans-31" transform="translate(0 0.765625)"/>
       <use xlink:href="#DejaVuSans-30" transform="translate(63.623047 0.765625)"/>
       <use xlink:href="#DejaVuSans-30" transform="translate(128.203125 39.046875) scale(0.7)"/>
      </g>
     </g>
    </g>
    <g id="ytick_6">
     <g id="line2d_12">
      <defs>
       <path id="m50af802cb0" d="M 0 0 
L -2 0 
" style="stroke: #000000; stroke-width: 0.6"/>
      </defs>
      <g>
       <use xlink:href="#m50af802cb0" x="51.378125" y="283.455154" style="stroke: #000000; stroke-width: 0.6"/>
      </g>
     </g>
    </g>
    <g id="ytick_7">
     <g id="line2d_13">
      <g>
       <use xlink:href="#m50af802cb0" x="51.378125" y="278.810083" style="stroke: #000000; stroke-width: 0.6"/>
      </g>
     </g>
    </g>
    <g id="ytick_8">
     <g id="line2d_14">
      <g>
       <use xlink:href="#m50af802cb0" x="51.378125" y="274.882732" style="stroke: #000000; stroke-width: 0.6"/>
      </g>
     </g>
    </g>
    <g id="ytick_9">
     <g id="line2d_15">
      <g>
       <use xlink:href="#m50af802cb0" x="51.378125" y="271.480705" style="stroke: #000000; stroke-width: 0.6"/>
      </g>
     </g>
    </g>
    <g id="ytick_10">
     <g id="line2d_16">
      <g>
       <use xlink:href="#m50af802cb0" x="51.378125" y="268.479905" style="stroke: #000000; stroke-width: 0.6"/>
      </g>
     </g>
    </g>
    <g id="ytick_11">
     <g id="line2d_17">
      <g>
       <use xlink:href="#m50af802cb0" x="51.378125" y="248.136043" style="stroke: #000000; stroke-width: 0.6"/>
      </g>
     </g>
    </g>
    <g id="ytick_12">
     <g id="line2d_18">
      <g>
       <use xlink:href="#m50af802cb0" x="51.378125" y="237.805865" style="stroke: #000000; stroke-width: 0.6"/>
      </g>
     </g>
    </g>
    <g id="ytick_13">
     <g id="line2d_19">
      <g>
       <use xlink:href="#m50af802cb0" x="51.378125" y="230.476488" style="stroke: #000000; stroke-width: 0.6"/>
      </g>
     </g>
    </g>
    <g id="ytick_14">
     <g id="line2d_20">
      <g>
       <use xlink:href="#m50af802cb0" x="51.378125" y="224.791381" style="stroke: #000000; stroke-width: 0.6"/>
      </g>
     </g>
    </g>
    <g id="ytick_15">
     <g id="line2d_21">
      <g>
       <use xlink:href="#m50af802cb0" x="51.378125" y="220.14631" style="stroke: #000000; stroke-width: 0.6"/>
      </g>
     </g>
    </g>
    <g id="ytick_16">
     <g id="line2d_22">
      <g>
       <use xlink:href="#m50af802cb0" x="51.378125" y="216.218959" style="stroke: #000000; stroke-width: 0.6"/>
      </g>
     </g>
    </g>
    <g id="ytick_17">
     <g id="line2d_23">
      <g>
       <use xlink:href="#m50af802cb0" x="51.378125" y="212.816932" style="stroke: #000000; stroke-width: 0.6"/>
      </g>
     </g>
    </g>
    <g id="ytick_18">
     <g id="line2d_24">
      <g>
       <use xlink:href="#m50af802cb0" x="51.378125" y="209.816132" style="stroke: #000000; stroke-width: 0.6"/>
      </g>
     </g>
    </g>
    <g id="ytick_19">
     <g id="line2d_25">
      <g>
       <use xlink:href="#m50af802cb0" x="51.378125" y="189.47227" style="stroke: #000000; stroke-width: 0.6"/>
      </g>
     </g>
    </g>
    <g id="ytick_20">
     <g id="line2d_26">
      <g>
       <use xlink:href="#m50af802cb0" x="51.378125" y="179.142092" style="stroke: #000000; stroke-width: 0.6"/>
      </g>
     </g>
    </g>
    <g id="ytick_21">
     <g id="line2d_27">
      <g>
       <use xlink:href="#m50af802cb0" x="51.378125" y="171.812714" style="stroke: #000000; stroke-width: 0.6"/>
      </g>
     </g>
    </g>
    <g id="ytick_22">
     <g id="line2d_28">
      <g>
       <use xlink:href="#m50af802cb0" x="51.378125" y="166.127607" style="stroke: #000000; stroke-width: 0.6"/>
      </g>
     </g>
    </g>
    <g id="ytick_23">
     <g id="line2d_29">
      <g>
       <use xlink:href="#m50af802cb0" x="51.378125" y="161.482537" style="stroke: #000000; stroke-width: 0.6"/>
      </g>
     </g>
    </g>
    <g id="ytick_24">
     <g id="line2d_30">
      <g>
       <use xlink:href="#m50af802cb0" x="51.378125" y="157.555185" style="stroke: #000000; stroke-width: 0.6"/>
      </g>
     </g>
    </g>
    <g id="ytick_25">
     <g id="line2d_31">
      <g>
       <use xlink:href="#m50af802cb0" x="51.378125" y="154.153159" style="stroke: #000000; stroke-width: 0.6"/>
      </g>
     </g>
    </g>
    <g id="ytick_26">
     <g id="line2d_32">
      <g>
       <use xlink:href="#m50af802cb0" x="51.378125" y="151.152359" style="stroke: #000000; stroke-width: 0.6"/>
      </g>
     </g>
    </g>
    <g id="ytick_27">
     <g id="line2d_33">
      <g>
       <use xlink:href="#m50af802cb0" x="51.378125" y="130.808497" style="stroke: #000000; stroke-width: 0.6"/>
      </g>
     </g>
    </g>
    <g id="ytick_28">
     <g id="line2d_34">
      <g>
       <use xlink:href="#m50af802cb0" x="51.378125" y="120.478319" style="stroke: #000000; stroke-width: 0.6"/>
      </g>
     </g>
    </g>
    <g id="ytick_29">
     <g id="line2d_35">
      <g>
       <use xlink:href="#m50af802cb0" x="51.378125" y="113.148941" style="stroke: #000000; stroke-width: 0.6"/>
      </g>
     </g>
    </g>
    <g id="ytick_30">
     <g id="line2d_36">
      <g>
       <use xlink:href="#m50af802cb0" x="51.378125" y="107.463834" style="stroke: #000000; stroke-width: 0.6"/>
      </g>
     </g>
    </g>
    <g id="ytick_31">
     <g id="line2d_37">
      <g>
       <use xlink:href="#m50af802cb0" x="51.378125" y="102.818764" style="stroke: #000000; stroke-width: 0.6"/>
      </g>
     </g>
    </g>
    <g id="ytick_32">
     <g id="line2d_38">
      <g>
       <use xlink:href="#m50af802cb0" x="51.378125" y="98.891412" style="stroke: #000000; stroke-width: 0.6"/>
      </g>
     </g>
    </g>
    <g id="ytick_33">
     <g id="line2d_39">
      <g>
       <use xlink:href="#m50af802cb0" x="51.378125" y="95.489386" style="stroke: #000000; stroke-width: 0.6"/>
      </g>
     </g>
    </g>
    <g id="ytick_34">
     <g id="line2d_40">
      <g>
       <use xlink:href="#m50af802cb0" x="51.378125" y="92.488586" style="stroke: #000000; stroke-width: 0.6"/>
      </g>
     </g>
    </g>
    <g id="ytick_35">
     <g id="line2d_41">
      <g>
       <use xlink:href="#m50af802cb0" x="51.378125" y="72.144723" style="stroke: #000000; stroke-width: 0.6"/>
      </g>
     </g>
    </g>
    <g id="ytick_36">
     <g id="line2d_42">
      <g>
       <use xlink:href="#m50af802cb0" x="51.378125" y="61.814546" style="stroke: #000000; stroke-width: 0.6"/>
      </g>
     </g>
    </g>
    <g id="ytick_37">
     <g id="line2d_43">
      <g>
       <use xlink:href="#m50af802cb0" x="51.378125" y="54.485168" style="stroke: #000000; stroke-width: 0.6"/>
      </g>
     </g>
    </g>
    <g id="ytick_38">
     <g id="line2d_44">
      <g>
       <use xlink:href="#m50af802cb0" x="51.378125" y="48.800061" style="stroke: #000000; stroke-width: 0.6"/>
      </g>
     </g>
    </g>
    <g id="ytick_39">
     <g id="line2d_45">
      <g>
       <use xlink:href="#m50af802cb0" x="51.378125" y="44.15499" style="stroke: #000000; stroke-width: 0.6"/>
      </g>
     </g>
    </g>
    <g id="ytick_40">
     <g id="line2d_46">
      <g>
       <use xlink:href="#m50af802cb0" x="51.378125" y="40.227639" style="stroke: #000000; stroke-width: 0.6"/>
      </g>
     </g>
    </g>
    <g id="ytick_41">
     <g id="line2d_47">
      <g>
       <use xlink:href="#m50af802cb0" x="51.378125" y="36.825613" style="stroke: #000000; stroke-width: 0.6"/>
      </g>
     </g>
    </g>
    <g id="ytick_42">
     <g id="line2d_48">
      <g>
       <use xlink:href="#m50af802cb0" x="51.378125" y="33.824813" style="stroke: #000000; stroke-width: 0.6"/>
      </g>
     </g>
    </g>
    <g id="ytick_43">
     <g id="line2d_49">
      <g>
       <use xlink:href="#m50af802cb0" x="51.378125" y="13.48095" style="stroke: #000000; stroke-width: 0.6"/>
      </g>
     </g>
    </g>
    <g id="text_13">
     <!-- Loss -->
     <g transform="translate(14.798438 156.767187) rotate(-90) scale(0.1 -0.1)">
      <defs>
       <path id="DejaVuSans-4c" d="M 628 4666 
L 1259 4666 
L 1259 531 
L 3531 531 
L 3531 0 
L 628 0 
L 628 4666 
z
" transform="scale(0.015625)"/>
       <path id="DejaVuSans-6f" d="M 1959 3097 
Q 1497 3097 1228 2736 
Q 959 2375 959 1747 
Q 959 1119 1226 758 
Q 1494 397 1959 397 
Q 2419 397 2687 759 
Q 2956 1122 2956 1747 
Q 2956 2369 2687 2733 
Q 2419 3097 1959 3097 
z
M 1959 3584 
Q 2709 3584 3137 3096 
Q 3566 2609 3566 1747 
Q 3566 888 3137 398 
Q 2709 -91 1959 -91 
Q 1206 -91 779 398 
Q 353 888 353 1747 
Q 353 2609 779 3096 
Q 1206 3584 1959 3584 
z
" transform="scale(0.015625)"/>
       <path id="DejaVuSans-73" d="M 2834 3397 
L 2834 2853 
Q 2591 2978 2328 3040 
Q 2066 3103 1784 3103 
Q 1356 3103 1142 2972 
Q 928 2841 928 2578 
Q 928 2378 1081 2264 
Q 1234 2150 1697 2047 
L 1894 2003 
Q 2506 1872 2764 1633 
Q 3022 1394 3022 966 
Q 3022 478 2636 193 
Q 2250 -91 1575 -91 
Q 1294 -91 989 -36 
Q 684 19 347 128 
L 347 722 
Q 666 556 975 473 
Q 1284 391 1588 391 
Q 1994 391 2212 530 
Q 2431 669 2431 922 
Q 2431 1156 2273 1281 
Q 2116 1406 1581 1522 
L 1381 1569 
Q 847 1681 609 1914 
Q 372 2147 372 2553 
Q 372 3047 722 3315 
Q 1072 3584 1716 3584 
Q 2034 3584 2315 3537 
Q 2597 3491 2834 3397 
z
" transform="scale(0.015625)"/>
      </defs>
      <use xlink:href="#DejaVuSans-4c"/>
      <use xlink:href="#DejaVuSans-6f" x="53.962891"/>
      <use xlink:href="#DejaVuSans-73" x="115.144531"/>
      <use xlink:href="#DejaVuSans-73" x="167.244141"/>
     </g>
    </g>
   </g>
   <g id="line2d_50">
    <path d="M 64.059943 20.974505 
L 64.286607 22.672981 
L 64.966597 24.352375 
L 65.19326 21.539418 
L 65.419924 20.806811 
L 65.873251 21.263398 
L 66.326577 21.017813 
L 66.553241 21.254351 
L 66.779904 21.190912 
L 67.006568 20.41921 
L 67.233231 20.051896 
L 67.686558 20.066849 
L 67.913221 20.181425 
L 68.819875 20.060105 
L 69.046538 20.202355 
L 69.499865 20.255637 
L 69.726529 19.8 
L 70.179855 20.086638 
L 70.633182 20.178286 
L 70.859846 19.898348 
L 71.086509 19.851669 
L 71.313173 20.011954 
L 72.219826 19.876434 
L 72.44649 20.032586 
L 74.48646 20.021828 
L 74.939787 20.069432 
L 75.166451 19.985716 
L 75.619777 20.105218 
L 76.526431 20.211583 
L 76.753095 29.876107 
L 76.979758 33.352054 
L 77.433085 31.124678 
L 77.659748 32.177939 
L 77.886412 31.656236 
L 78.113075 31.574677 
L 78.339738 29.895389 
L 78.566402 30.155779 
L 79.473056 32.291881 
L 79.926382 33.248761 
L 80.153046 33.216079 
L 80.379709 33.371237 
L 80.606373 33.056842 
L 80.833036 33.653403 
L 81.059699 33.620799 
L 81.513026 33.939624 
L 81.73969 33.811469 
L 81.966353 33.887345 
L 82.193017 33.612032 
L 82.41968 33.576638 
L 82.646343 33.752319 
L 82.873007 33.559061 
L 83.09967 33.71697 
L 83.552997 33.795441 
L 83.77966 33.909288 
L 84.459651 34.625252 
L 84.686314 34.617737 
L 84.912978 34.745125 
L 85.139641 34.686302 
L 85.592968 35.118953 
L 86.499621 35.077675 
L 86.726285 35.184965 
L 86.952948 34.852046 
L 87.179612 34.752191 
L 87.632939 34.955001 
L 88.312929 34.720661 
L 88.992919 34.804341 
L 89.219582 34.563547 
L 89.446246 51.93226 
L 89.672909 57.500914 
L 89.899573 55.447581 
L 90.126236 56.408053 
L 90.3529 58.035478 
L 90.579563 53.854396 
L 90.806226 52.439882 
L 91.03289 53.695753 
L 91.259553 53.249975 
L 91.486217 53.380694 
L 91.939543 54.36225 
L 92.166207 54.341016 
L 92.619534 55.474635 
L 93.072861 57.308965 
L 93.299524 56.458937 
L 93.752851 57.536988 
L 94.659504 59.197855 
L 95.112831 59.791052 
L 95.339495 60.35508 
L 95.792822 59.778607 
L 96.019485 59.268198 
L 96.246148 59.071285 
L 96.699475 59.888341 
L 96.926139 59.843684 
L 98.059456 58.76009 
L 98.286119 58.882935 
L 98.739446 58.719485 
L 98.966109 58.855857 
L 99.192773 59.137688 
L 99.6461 59.165295 
L 99.872763 59.315783 
L 100.099426 58.885789 
L 100.552753 59.014948 
L 100.779417 58.812774 
L 101.00608 58.986907 
L 101.232744 58.851125 
L 101.459407 58.382423 
L 101.68607 58.321792 
L 101.912734 58.087284 
L 102.139397 66.968181 
L 102.366061 70.709814 
L 102.592724 72.149777 
L 102.819387 76.881549 
L 103.272714 79.916654 
L 103.499378 80.518033 
L 103.726041 82.3684 
L 103.952705 78.991376 
L 104.179368 79.83717 
L 104.406031 81.356309 
L 104.632695 80.88467 
L 104.859358 79.996435 
L 105.312685 81.712772 
L 105.539348 82.533979 
L 105.992675 82.282568 
L 106.219339 82.515247 
L 106.446002 83.354362 
L 106.672666 82.671644 
L 106.899329 82.689943 
L 107.125992 83.039744 
L 107.352656 83.82907 
L 107.805983 84.499357 
L 108.032646 84.421554 
L 108.259309 84.825111 
L 108.485973 84.631238 
L 108.712636 83.692108 
L 108.9393 83.411767 
L 109.165963 83.940891 
L 109.392627 84.123792 
L 109.845953 85.048674 
L 110.072617 84.715453 
L 110.29928 84.717579 
L 110.525944 84.464199 
L 110.752607 84.730003 
L 110.979271 84.515126 
L 111.432597 85.151793 
L 111.659261 84.876538 
L 112.339251 82.557109 
L 112.565914 82.846157 
L 112.792578 82.223499 
L 113.245905 82.39438 
L 113.472568 82.325187 
L 113.699232 82.02218 
L 113.925895 82.09818 
L 114.152558 81.250162 
L 114.379222 81.016883 
L 114.605885 81.144456 
L 114.832549 93.06151 
L 115.059212 87.830814 
L 115.285875 87.875945 
L 115.512539 93.3879 
L 115.739202 95.235266 
L 115.965866 86.639173 
L 116.419193 90.91786 
L 116.645856 91.57471 
L 116.872519 93.130555 
L 117.099183 92.529378 
L 117.325846 94.563096 
L 117.55251 93.159503 
L 117.779173 94.537319 
L 118.005836 94.409784 
L 118.91249 97.825032 
L 119.139154 98.234808 
L 119.365817 97.393149 
L 119.819144 96.653422 
L 120.045807 97.035712 
L 120.272471 96.672832 
L 120.499134 97.208842 
L 120.725797 96.118384 
L 120.952461 96.297514 
L 121.405788 97.549546 
L 121.632451 98.118582 
L 122.085778 98.663064 
L 122.312441 98.427884 
L 122.765768 98.832695 
L 122.992432 96.720623 
L 123.899085 98.139478 
L 124.579076 99.167218 
L 124.805739 97.550963 
L 125.259066 98.242272 
L 125.485729 98.31059 
L 125.712393 98.134924 
L 125.939056 96.281139 
L 126.392383 97.005774 
L 126.619046 96.1308 
L 126.84571 96.018037 
L 127.299037 94.123159 
L 127.5257 158.510209 
L 127.752363 108.938043 
L 127.979027 112.53753 
L 128.20569 112.759217 
L 128.432354 93.380455 
L 128.659017 83.644686 
L 128.88568 80.859008 
L 129.112344 83.101121 
L 129.339007 77.598985 
L 129.565671 78.770648 
L 129.792334 78.312065 
L 130.018998 79.640027 
L 130.245661 79.796776 
L 130.472324 79.673849 
L 130.698988 78.469663 
L 130.925651 75.62801 
L 131.152315 77.103182 
L 131.605641 78.326087 
L 132.058968 79.347196 
L 132.285632 79.365781 
L 132.738959 80.381982 
L 132.965622 80.972312 
L 133.192285 81.892985 
L 133.418949 81.661143 
L 133.872276 82.551559 
L 134.098939 82.008086 
L 134.552266 82.285482 
L 134.778929 82.657158 
L 135.005593 83.329808 
L 135.232256 83.078268 
L 135.685583 83.261573 
L 136.365573 84.286338 
L 136.592237 84.571285 
L 137.045563 83.591505 
L 137.272227 83.70614 
L 137.725554 84.415723 
L 137.952217 84.216775 
L 138.632207 84.480025 
L 138.858871 84.336855 
L 139.085534 82.939719 
L 139.312198 83.226112 
L 139.992188 82.835319 
L 140.218851 107.369438 
L 140.445515 107.114121 
L 140.672178 108.547456 
L 140.898842 108.444314 
L 141.125505 109.987888 
L 141.352168 113.130009 
L 141.805495 114.871025 
L 142.032159 116.939752 
L 142.258822 117.701377 
L 142.485485 118.943455 
L 142.712149 117.473033 
L 142.938812 118.067558 
L 143.618803 121.683854 
L 144.072129 122.163557 
L 144.298793 112.792947 
L 144.525456 109.90649 
L 144.75212 110.567689 
L 145.43211 108.815357 
L 145.885437 105.66866 
L 146.338764 98.867303 
L 146.565427 99.389016 
L 146.79209 98.871733 
L 147.018754 97.974896 
L 147.245417 98.417719 
L 147.472081 96.735302 
L 147.698744 96.546951 
L 147.925407 96.081319 
L 148.152071 95.118954 
L 148.605398 95.623833 
L 148.832061 95.387386 
L 149.058725 95.708463 
L 149.285388 95.571609 
L 149.512051 95.615264 
L 149.738715 95.851502 
L 149.965378 95.620369 
L 150.192042 95.850792 
L 150.418705 95.051974 
L 150.645368 95.524718 
L 150.872032 95.722779 
L 151.098695 96.217686 
L 151.325359 96.288926 
L 151.552022 96.191672 
L 152.005349 96.903827 
L 152.458676 95.67286 
L 152.685339 95.953332 
L 153.138666 128.996656 
L 153.365329 138.36283 
L 153.818656 132.447611 
L 154.04532 105.765642 
L 154.271983 105.519709 
L 154.498647 105.077119 
L 154.72531 104.165728 
L 154.951973 106.556848 
L 155.4053 108.418803 
L 155.631964 107.202382 
L 155.858627 107.576931 
L 156.08529 108.744598 
L 156.311954 107.846859 
L 156.991944 111.110736 
L 157.218608 111.335005 
L 157.898598 114.013749 
L 158.125261 114.187988 
L 158.351925 107.97998 
L 158.578588 107.235964 
L 158.805251 107.74784 
L 159.031915 107.943005 
L 159.711905 110.234256 
L 159.938569 106.720793 
L 160.165232 107.29211 
L 160.391895 104.439924 
L 160.618559 104.668446 
L 160.845222 105.309016 
L 161.298549 104.194045 
L 161.525212 104.632362 
L 161.751876 104.156429 
L 161.978539 104.661029 
L 162.205203 104.617996 
L 162.431866 105.078146 
L 162.65853 105.074542 
L 163.111856 105.925995 
L 163.33852 105.965125 
L 163.565183 106.385681 
L 163.791847 106.206094 
L 164.01851 105.174304 
L 164.245174 105.07641 
L 164.471837 105.250606 
L 164.6985 103.997897 
L 164.925164 103.62263 
L 165.378491 103.967821 
L 165.831817 115.069069 
L 166.058481 102.407001 
L 166.285144 101.774293 
L 166.511808 104.546847 
L 166.738471 100.705833 
L 167.645125 109.994329 
L 168.098452 110.897104 
L 168.325115 112.331389 
L 168.551778 110.160439 
L 169.458432 115.1828 
L 169.685096 115.408028 
L 169.911759 116.58038 
L 170.138422 114.652759 
L 170.365086 113.697591 
L 171.045076 116.224164 
L 171.271739 116.276074 
L 171.498403 116.089112 
L 171.95173 117.17353 
L 172.178393 117.327582 
L 172.405057 116.79954 
L 173.085047 118.831238 
L 173.31171 118.144194 
L 173.538374 118.59122 
L 173.9917 117.284518 
L 174.218364 117.923625 
L 174.445027 117.282274 
L 174.898354 118.119407 
L 175.578344 119.676807 
L 177.164988 121.77587 
L 177.618315 122.038435 
L 178.071642 122.661045 
L 178.298305 130.879932 
L 178.524969 146.781212 
L 178.751632 138.922775 
L 178.978296 142.659668 
L 179.204959 141.665572 
L 179.884949 149.080247 
L 180.111613 151.260744 
L 180.338276 141.03418 
L 181.018266 146.928241 
L 181.24493 137.108517 
L 181.698257 139.894065 
L 182.378247 143.399706 
L 182.60491 138.283338 
L 182.831574 138.592471 
L 183.058237 139.710755 
L 183.284901 138.541081 
L 183.511564 136.149042 
L 183.738227 131.366555 
L 183.964891 131.833331 
L 184.191554 131.76012 
L 184.418218 132.106068 
L 184.644881 132.190455 
L 185.098208 132.899827 
L 185.324871 130.489065 
L 185.551535 124.660322 
L 185.778198 124.078148 
L 186.231525 120.851947 
L 186.458188 120.803985 
L 186.911515 116.767998 
L 187.138179 107.044336 
L 187.364842 107.35334 
L 187.818169 106.747344 
L 188.044832 101.714948 
L 188.271496 100.998614 
L 188.498159 100.778825 
L 188.724823 100.955898 
L 188.951486 100.787801 
L 189.178149 101.11317 
L 189.404813 100.865836 
L 189.631476 101.251985 
L 190.084803 98.618573 
L 190.311466 94.560349 
L 190.53813 94.344773 
L 190.764793 94.745853 
L 190.991457 110.622627 
L 191.21812 109.729085 
L 191.444784 105.660401 
L 191.671447 96.446529 
L 191.89811 97.799531 
L 192.351437 85.034947 
L 192.804764 90.806807 
L 193.258091 92.257711 
L 193.711418 95.252606 
L 194.164745 98.062016 
L 194.391408 99.38361 
L 194.844735 100.526485 
L 195.071398 98.233354 
L 195.298062 97.176066 
L 195.524725 94.532679 
L 195.751388 95.18888 
L 195.978052 95.128006 
L 196.204715 95.549531 
L 196.884706 98.185057 
L 197.111369 98.535287 
L 197.338032 94.135709 
L 197.791359 95.360407 
L 198.244686 96.634479 
L 198.471349 95.780741 
L 198.698013 93.991075 
L 198.924676 93.93554 
L 199.15134 94.316587 
L 199.378003 94.207165 
L 199.604667 93.743677 
L 200.284657 89.50888 
L 200.737984 90.316473 
L 200.964647 90.514205 
L 201.19131 90.477616 
L 201.644637 91.216487 
L 201.871301 91.037604 
L 202.551291 89.970597 
L 202.777954 89.977912 
L 203.004618 88.544631 
L 203.231281 88.598379 
L 203.457945 88.834423 
L 203.684608 119.219906 
L 203.911271 115.572263 
L 204.137935 117.697845 
L 204.364598 91.667256 
L 204.591262 86.164203 
L 204.817925 86.312443 
L 205.271252 90.697127 
L 205.497915 91.996759 
L 205.724579 87.907868 
L 205.951242 86.200972 
L 206.177906 87.593674 
L 206.404569 68.774346 
L 206.631232 65.460123 
L 207.084559 67.29022 
L 207.311223 67.573745 
L 207.537886 68.742571 
L 207.76455 68.098776 
L 207.991213 68.785836 
L 208.217876 68.499959 
L 208.44454 69.568964 
L 208.671203 69.065868 
L 208.897867 70.001374 
L 209.12453 69.751761 
L 209.577857 71.325101 
L 209.80452 71.559362 
L 211.617828 76.941228 
L 212.297818 77.920832 
L 212.524481 78.104797 
L 212.751145 78.662919 
L 212.977808 77.931057 
L 213.431135 78.616312 
L 213.657798 77.428692 
L 213.884462 77.253622 
L 215.244442 79.209654 
L 215.697769 79.915232 
L 215.924433 79.28603 
L 216.151096 79.261411 
L 216.377759 157.217604 
L 216.604423 147.076264 
L 216.831086 97.579174 
L 217.284413 106.108761 
L 217.73774 110.452787 
L 217.964403 106.933489 
L 218.191067 109.606097 
L 218.644394 111.183979 
L 218.871057 112.459667 
L 219.09772 102.969443 
L 219.324384 103.9121 
L 219.777711 104.687075 
L 220.231038 106.811999 
L 220.911028 109.95205 
L 221.137691 110.206019 
L 221.364355 108.152755 
L 221.591018 104.465672 
L 221.817681 103.299738 
L 222.044345 103.92204 
L 222.271008 102.826738 
L 222.497672 103.65017 
L 222.724335 103.872255 
L 222.950999 104.698232 
L 223.177662 102.556627 
L 223.404325 103.277066 
L 223.857652 100.768744 
L 224.084316 100.436485 
L 224.310979 99.092536 
L 224.537642 98.805314 
L 224.990969 99.66564 
L 225.217633 99.675887 
L 225.67096 100.650067 
L 225.897623 101.016013 
L 226.124286 98.616733 
L 226.35095 99.126806 
L 226.804277 99.534324 
L 227.03094 99.496269 
L 227.484267 98.101401 
L 227.71093 98.560061 
L 227.937594 98.64913 
L 228.164257 97.572949 
L 228.390921 97.899246 
L 228.617584 94.545432 
L 228.844247 94.619004 
L 229.070911 190.703542 
L 229.297574 120.270466 
L 229.524238 119.799045 
L 229.750901 126.368708 
L 229.977564 127.60094 
L 230.204228 129.465843 
L 230.657555 104.696564 
L 231.110882 106.138761 
L 231.337545 108.27067 
L 231.564208 73.784834 
L 231.790872 75.474802 
L 232.017535 75.067405 
L 232.924189 80.041731 
L 233.150852 81.232055 
L 233.377516 81.349347 
L 234.057506 84.17687 
L 234.284169 84.914724 
L 234.510833 84.576904 
L 235.64415 88.164393 
L 235.870813 87.593806 
L 236.097477 86.511321 
L 236.550804 87.790094 
L 237.00413 88.624378 
L 237.230794 89.147491 
L 237.457457 88.808264 
L 237.910784 89.732758 
L 238.137447 89.887375 
L 238.364111 89.823988 
L 238.817438 89.984755 
L 239.497428 91.37188 
L 239.724091 90.790116 
L 239.950755 90.849909 
L 240.177418 90.469387 
L 240.630745 91.065462 
L 241.084072 91.803963 
L 241.310735 91.941636 
L 241.537399 91.451467 
L 241.764062 91.661331 
L 241.990726 94.923384 
L 242.444052 105.903533 
L 242.670716 101.80232 
L 242.897379 105.816678 
L 243.124043 106.970855 
L 243.577369 111.769223 
L 243.804033 109.367118 
L 244.030696 110.44003 
L 244.25736 109.906774 
L 244.484023 111.799101 
L 244.710687 109.128113 
L 244.93735 109.398937 
L 245.390677 111.340307 
L 246.070667 113.893525 
L 246.523994 106.277399 
L 246.750657 106.497684 
L 246.977321 107.408097 
L 247.203984 107.615196 
L 247.657311 108.797081 
L 247.883974 106.889964 
L 248.110638 107.524229 
L 248.337301 102.336599 
L 248.563965 100.215702 
L 249.017291 101.419183 
L 249.243955 102.009069 
L 249.470618 101.240418 
L 249.923945 102.32762 
L 250.150609 101.670592 
L 250.830599 101.013611 
L 251.057262 101.040652 
L 251.283926 101.535118 
L 251.510589 101.624344 
L 251.737252 99.636333 
L 251.963916 99.091751 
L 252.190579 97.847891 
L 252.417243 98.042646 
L 252.87057 96.018098 
L 254.23055 97.536817 
L 254.457213 161.658775 
L 254.683877 107.814636 
L 255.137204 121.767376 
L 255.590531 130.958591 
L 255.817194 133.571824 
L 256.043857 127.407656 
L 256.270521 105.492848 
L 256.723848 110.010381 
L 256.950511 110.864861 
L 257.403838 114.289776 
L 257.630501 114.999351 
L 257.857165 111.812852 
L 258.083828 111.203277 
L 258.310492 112.078998 
L 258.763818 114.351763 
L 258.990482 114.005232 
L 259.217145 114.204624 
L 259.443809 113.624073 
L 260.123799 116.130584 
L 260.350462 114.588796 
L 260.577126 115.135713 
L 260.803789 115.290706 
L 261.257116 116.802961 
L 261.483779 116.781966 
L 262.16377 118.308121 
L 262.390433 117.817971 
L 263.750414 120.261601 
L 265.790384 123.92675 
L 266.017048 123.875872 
L 266.923701 125.617693 
L 267.150365 261.492788 
L 267.377028 204.13612 
L 267.603692 211.288101 
L 267.830355 212.616279 
L 268.057018 206.349847 
L 268.963672 214.883287 
L 269.416999 197.837733 
L 269.870326 199.978014 
L 270.096989 198.780712 
L 270.323653 196.848871 
L 271.45697 200.916944 
L 271.683633 199.916649 
L 272.590287 203.526834 
L 272.81695 201.733541 
L 273.270277 203.072964 
L 274.403594 206.676208 
L 274.630258 205.370782 
L 274.856921 205.570779 
L 275.310248 205.429695 
L 275.536911 205.83573 
L 275.763575 206.4787 
L 275.990238 206.163164 
L 276.216902 202.885933 
L 277.350219 205.295737 
L 277.576882 205.670023 
L 277.803545 205.82482 
L 278.030209 198.460943 
L 278.256872 196.423035 
L 278.483536 196.512356 
L 279.616853 198.468643 
L 279.843516 259.816238 
L 280.07018 220.783799 
L 280.296843 228.072523 
L 280.523506 227.82532 
L 280.75017 229.389495 
L 280.976833 229.157089 
L 281.203497 231.080163 
L 281.43016 223.761832 
L 281.656824 225.428829 
L 281.883487 224.676704 
L 282.11015 226.240773 
L 282.336814 226.79654 
L 282.790141 229.519316 
L 283.243467 232.170421 
L 283.470131 232.436895 
L 283.696794 232.930657 
L 283.923458 233.944878 
L 284.150121 232.981333 
L 284.376785 232.951116 
L 284.603448 233.438424 
L 284.830111 223.718142 
L 285.510102 225.762272 
L 285.963428 227.246152 
L 286.416755 227.465248 
L 286.643419 228.20774 
L 286.870082 228.347382 
L 287.550072 230.050742 
L 287.776736 229.670035 
L 288.230063 230.556009 
L 288.456726 230.50628 
L 288.910053 230.275156 
L 289.136716 230.675822 
L 289.590043 230.418474 
L 289.816707 230.92603 
L 290.04337 230.237298 
L 291.176687 231.983776 
L 291.40335 232.011354 
L 292.310004 233.152316 
L 292.536668 271.8 
L 292.763331 229.669513 
L 293.216658 243.826634 
L 293.443321 247.050657 
L 293.669985 245.981951 
L 293.896648 246.518261 
L 294.123311 249.123597 
L 294.349975 246.452685 
L 294.576638 247.603311 
L 294.803302 245.586779 
L 295.029965 245.695215 
L 295.256629 244.425023 
L 295.483292 244.487181 
L 295.709955 243.770332 
L 295.936619 231.09549 
L 296.389946 232.48223 
L 297.296599 236.145753 
L 297.523263 236.489572 
L 297.749926 237.450784 
L 297.97659 237.299658 
L 298.203253 237.989028 
L 298.429916 237.880243 
L 298.65658 238.479749 
L 299.109907 239.117151 
L 299.33657 239.066756 
L 299.563233 238.539701 
L 299.789897 238.505191 
L 300.469887 239.597494 
L 300.696551 240.186598 
L 301.149877 240.478565 
L 301.376541 240.144751 
L 301.603204 240.359215 
L 302.056531 241.120192 
L 302.283194 240.787897 
L 302.509858 240.94177 
L 302.736521 241.274122 
L 303.189848 241.06671 
L 303.643175 241.901837 
L 304.549829 243.074571 
L 304.776492 242.671112 
L 305.003155 243.08234 
L 305.456482 264.623283 
L 305.683146 264.186436 
L 306.136473 257.872962 
L 306.363136 254.978161 
L 306.589799 254.723005 
L 306.816463 256.971375 
L 307.043126 256.422152 
L 307.26979 251.730969 
L 307.723116 254.083985 
L 307.94978 252.722007 
L 308.176443 248.823501 
L 308.403107 250.389041 
L 308.62977 249.149594 
L 308.856434 248.825168 
L 309.083097 249.17429 
L 309.30976 250.372593 
L 309.763087 251.272485 
L 309.989751 252.249907 
L 310.216414 252.480762 
L 310.443077 252.454773 
L 310.896404 253.916585 
L 311.123068 253.505227 
L 311.349731 254.054225 
L 311.576395 253.837418 
L 311.803058 253.934507 
L 312.029721 253.825347 
L 312.256385 254.339259 
L 312.483048 254.421328 
L 312.936375 253.653996 
L 313.843029 255.271909 
L 314.069692 254.042374 
L 314.296356 246.981054 
L 314.523019 246.842659 
L 315.203009 248.161053 
L 315.429673 248.675693 
L 315.656336 248.8266 
L 315.882999 249.128459 
L 316.109663 249.170391 
L 316.336326 248.473757 
L 316.56299 248.370622 
L 316.789653 247.722189 
L 317.016317 248.197658 
L 317.24298 248.127042 
L 317.696307 248.901651 
L 317.696307 248.901651 
" clip-path="url(#p53fa2e6d6f)" style="fill: none; stroke-dasharray: 5.55,2.4; stroke-dashoffset: 0; stroke: #000000; stroke-width: 1.5"/>
   </g>
   <g id="line2d_51">
    <path d="M 64.059943 20.64876 
L 64.286607 21.614221 
L 64.51327 20.948548 
L 64.739933 21.136379 
L 64.966597 20.857398 
L 65.19326 21.196782 
L 65.419924 21.947047 
L 65.646587 22.010208 
L 65.873251 22.490032 
L 66.099914 22.145494 
L 66.326577 22.722829 
L 66.553241 22.525559 
L 67.233231 22.607391 
L 67.459894 22.420071 
L 67.686558 22.386608 
L 67.913221 22.745772 
L 68.593212 23.084651 
L 68.819875 22.916608 
L 69.046538 22.96711 
L 69.273202 22.64106 
L 69.499865 22.908723 
L 69.953192 22.783764 
L 70.179855 23.058021 
L 70.633182 22.738415 
L 70.859846 22.680424 
L 71.086509 22.81766 
L 71.313173 22.810276 
L 71.539836 22.945006 
L 71.766499 22.854722 
L 72.219826 22.895403 
L 72.673153 22.734666 
L 72.899816 22.818854 
L 74.259797 22.505386 
L 74.713124 22.726472 
L 75.393114 22.75079 
L 75.846441 22.980242 
L 76.526431 22.812499 
L 76.753095 39.985955 
L 76.979758 42.667844 
L 77.206421 41.114947 
L 77.433085 41.465888 
L 77.659748 40.84167 
L 77.886412 41.172768 
L 78.113075 42.747183 
L 78.339738 42.574209 
L 78.566402 42.211227 
L 78.793065 41.259049 
L 79.019729 41.564029 
L 79.473056 40.709999 
L 79.699719 41.021299 
L 79.926382 40.574156 
L 80.379709 40.35975 
L 80.606373 40.540249 
L 81.059699 39.587649 
L 81.286363 39.882256 
L 81.513026 39.930284 
L 81.73969 39.723106 
L 81.966353 39.79042 
L 82.41968 39.201643 
L 82.873007 39.92384 
L 83.326334 40.018097 
L 83.77966 40.518224 
L 84.006324 40.612328 
L 84.232987 40.363924 
L 84.686314 40.576366 
L 86.272958 40.389937 
L 86.499621 40.565834 
L 87.179612 40.331114 
L 87.406275 40.372953 
L 87.632939 40.137492 
L 87.859602 40.079714 
L 88.086265 39.846449 
L 88.992919 39.818975 
L 89.219582 39.945622 
L 89.446246 61.525877 
L 89.672909 61.534534 
L 89.899573 57.005198 
L 90.126236 59.505938 
L 90.3529 58.660541 
L 90.579563 58.715258 
L 90.806226 59.049175 
L 91.486217 63.373157 
L 91.71288 61.322005 
L 91.939543 61.435853 
L 92.39287 61.076251 
L 92.619534 60.860138 
L 92.846197 61.096061 
L 93.072861 61.153013 
L 93.299524 61.450812 
L 93.526187 61.302761 
L 93.979514 62.265081 
L 94.206178 62.646576 
L 94.432841 62.664074 
L 94.886168 62.90344 
L 95.112831 62.601544 
L 95.339495 62.879932 
L 95.566158 63.338909 
L 96.019485 63.422971 
L 96.472812 62.897221 
L 96.699475 62.285012 
L 96.926139 62.569713 
L 97.152802 62.520689 
L 97.606129 62.883561 
L 98.059456 62.691127 
L 98.512783 62.908647 
L 98.739446 62.596919 
L 99.192773 62.408664 
L 99.419436 62.553528 
L 99.6461 62.522886 
L 100.099426 62.011314 
L 101.232744 62.827748 
L 101.459407 62.839189 
L 101.912734 62.515605 
L 102.139397 74.790097 
L 102.366061 76.139036 
L 102.592724 78.856755 
L 102.819387 77.436786 
L 103.046051 77.40489 
L 103.272714 78.356016 
L 103.499378 78.540499 
L 103.726041 79.629686 
L 104.179368 83.531634 
L 104.859358 86.971862 
L 105.539348 81.29196 
L 106.446002 83.91253 
L 106.672666 83.911641 
L 107.125992 81.774681 
L 107.352656 81.964347 
L 107.805983 82.625996 
L 108.032646 82.008606 
L 108.259309 81.864055 
L 108.485973 81.084478 
L 108.9393 81.58667 
L 109.165963 81.749701 
L 109.845953 82.907428 
L 110.072617 82.996699 
L 110.752607 82.553727 
L 110.979271 82.974905 
L 111.205934 82.61104 
L 111.432597 82.697306 
L 111.659261 82.476716 
L 111.885924 82.462258 
L 112.792578 83.183435 
L 113.019241 83.542971 
L 113.245905 83.325186 
L 113.925895 83.878826 
L 114.152558 83.079924 
L 114.605885 83.502337 
L 114.832549 99.226831 
L 115.285875 90.161607 
L 115.739202 83.92814 
L 116.419193 91.079412 
L 116.645856 92.935675 
L 116.872519 91.75582 
L 117.099183 93.505212 
L 117.325846 94.180277 
L 117.55251 93.327092 
L 117.779173 95.048939 
L 118.005836 95.307708 
L 118.2325 96.200306 
L 118.459163 95.487932 
L 118.685827 95.379693 
L 119.139154 96.357372 
L 119.59248 97.578821 
L 119.819144 96.237632 
L 120.272471 97.783481 
L 120.499134 98.012027 
L 120.952461 96.61185 
L 121.179124 96.678045 
L 121.632451 94.569417 
L 122.085778 95.533259 
L 122.312441 95.515049 
L 122.539105 95.614501 
L 122.992432 94.249476 
L 123.445758 94.670111 
L 123.672422 94.131932 
L 124.352412 95.442006 
L 124.579076 95.805512 
L 124.805739 95.554253 
L 125.259066 96.260976 
L 125.485729 95.612576 
L 125.712393 96.065789 
L 125.939056 95.894901 
L 126.165719 94.905695 
L 126.619046 95.799044 
L 126.84571 95.528783 
L 127.299037 95.807788 
L 127.5257 127.905932 
L 127.752363 102.651425 
L 127.979027 91.246756 
L 128.20569 96.545831 
L 128.432354 97.19458 
L 128.659017 89.89768 
L 129.112344 94.170873 
L 129.339007 94.385817 
L 129.565671 94.91611 
L 129.792334 92.168713 
L 130.018998 91.951047 
L 130.245661 92.349311 
L 130.472324 91.406164 
L 130.698988 91.977673 
L 131.152315 94.41348 
L 131.605641 95.537984 
L 131.832305 95.102323 
L 132.058968 96.116368 
L 132.285632 94.777595 
L 132.965622 97.004923 
L 133.192285 97.47459 
L 133.418949 98.232496 
L 133.645612 98.147783 
L 134.098939 98.806384 
L 134.325602 97.453278 
L 134.778929 98.866528 
L 135.232256 98.822332 
L 135.45892 99.397415 
L 135.685583 98.300109 
L 135.912246 98.673518 
L 136.365573 99.607609 
L 136.592237 100.121332 
L 136.8189 100.305227 
L 137.272227 99.392052 
L 137.49889 99.859191 
L 137.725554 99.918276 
L 137.952217 97.365857 
L 138.178881 96.725237 
L 138.405544 96.484983 
L 138.632207 96.067087 
L 138.858871 96.104413 
L 139.085534 96.26894 
L 139.312198 96.270151 
L 139.765524 96.743311 
L 139.992188 96.568579 
L 140.218851 118.267055 
L 140.445515 120.849106 
L 140.672178 108.940465 
L 140.898842 114.807783 
L 141.125505 114.076634 
L 141.352168 117.060589 
L 141.805495 112.698744 
L 142.485485 119.340756 
L 142.712149 117.420377 
L 142.938812 117.65875 
L 143.165476 109.431135 
L 143.392139 110.854316 
L 143.618803 109.468492 
L 143.845466 109.834412 
L 144.072129 102.783433 
L 144.298793 101.120944 
L 144.525456 98.087004 
L 144.75212 98.386308 
L 144.978783 99.269857 
L 145.205446 98.028731 
L 145.43211 98.183279 
L 145.885437 99.827582 
L 146.1121 100.352827 
L 146.338764 100.188027 
L 146.565427 100.525265 
L 146.79209 100.495262 
L 147.018754 100.215973 
L 147.245417 100.263723 
L 147.472081 98.931615 
L 147.698744 99.055871 
L 148.152071 99.441953 
L 148.378734 99.413223 
L 148.832061 99.814748 
L 149.058725 99.398975 
L 149.285388 99.72257 
L 149.512051 98.323502 
L 149.738715 98.449118 
L 149.965378 96.98959 
L 150.192042 97.238409 
L 150.418705 96.38216 
L 151.325359 97.776337 
L 151.552022 97.705834 
L 151.778686 97.355267 
L 152.005349 97.463586 
L 152.232012 97.135835 
L 152.458676 97.182522 
L 152.685339 95.416067 
L 152.912003 120.130384 
L 153.138666 119.93409 
L 153.365329 126.840388 
L 153.591993 119.268044 
L 153.818656 119.541183 
L 154.498647 100.094624 
L 154.72531 100.801786 
L 155.178637 96.757749 
L 155.4053 97.792421 
L 155.631964 99.360188 
L 155.858627 98.409724 
L 156.08529 99.591563 
L 156.311954 98.641766 
L 156.538617 99.604446 
L 156.765281 97.746629 
L 156.991944 93.477413 
L 157.445271 94.451358 
L 158.578588 98.711058 
L 159.031915 99.256093 
L 159.258578 97.35829 
L 159.711905 98.147249 
L 159.938569 97.20188 
L 160.165232 97.52234 
L 160.618559 96.156586 
L 160.845222 96.514151 
L 161.071886 96.083811 
L 161.298549 95.932777 
L 161.525212 95.383655 
L 161.751876 95.636382 
L 161.978539 95.335464 
L 162.205203 95.451571 
L 162.65853 92.541528 
L 163.111856 93.21895 
L 163.33852 92.980165 
L 163.565183 93.256766 
L 163.791847 93.303839 
L 164.01851 92.366576 
L 164.245174 92.336344 
L 164.6985 90.007941 
L 164.925164 89.865219 
L 165.151827 89.997117 
L 165.378491 89.965622 
L 165.605154 164.015996 
L 165.831817 138.652705 
L 166.285144 117.818885 
L 166.511808 117.048588 
L 166.738471 91.810963 
L 166.965135 91.258678 
L 167.191798 92.169832 
L 167.645125 95.009611 
L 167.871788 94.631016 
L 168.778442 98.692389 
L 169.231769 96.777324 
L 169.458432 94.162583 
L 169.685096 93.808889 
L 169.911759 94.939596 
L 170.138422 90.637712 
L 170.365086 90.954765 
L 170.818413 92.525297 
L 171.498403 94.896768 
L 172.405057 97.139553 
L 172.63172 96.787182 
L 172.858383 97.48098 
L 173.085047 97.021171 
L 173.31171 97.518244 
L 173.538374 97.562 
L 173.9917 98.710048 
L 174.218364 98.219387 
L 174.445027 96.395672 
L 174.671691 96.909978 
L 175.125018 93.1625 
L 175.351681 93.336739 
L 175.578344 93.331482 
L 175.805008 93.665694 
L 176.031671 93.505691 
L 176.258335 93.599994 
L 176.484998 93.948067 
L 176.711661 93.513768 
L 176.938325 93.575993 
L 177.164988 93.829313 
L 177.391652 93.650523 
L 177.618315 93.735465 
L 177.844979 93.52814 
L 178.071642 91.518796 
L 178.298305 129.856957 
L 178.524969 104.158575 
L 178.978296 117.470652 
L 179.204959 117.46006 
L 179.658286 111.761708 
L 179.884949 113.815328 
L 180.111613 114.090337 
L 180.338276 116.26726 
L 180.56494 106.325492 
L 180.791603 106.582313 
L 181.018266 107.401211 
L 181.24493 99.071354 
L 181.471593 97.601454 
L 181.698257 97.36079 
L 182.151583 99.884112 
L 182.60491 96.033452 
L 182.831574 96.343883 
L 183.058237 96.145581 
L 183.284901 96.622323 
L 183.511564 96.543874 
L 183.964891 97.673669 
L 184.191554 97.774561 
L 184.418218 97.55518 
L 184.644881 97.511304 
L 184.871544 97.630993 
L 185.098208 98.349138 
L 185.324871 98.375456 
L 185.551535 99.038718 
L 185.778198 99.095652 
L 186.004862 99.537689 
L 186.231525 99.076937 
L 186.458188 99.490913 
L 186.684852 98.97984 
L 186.911515 98.802314 
L 187.364842 99.94638 
L 187.591505 99.74395 
L 187.818169 99.960456 
L 188.044832 99.306117 
L 188.271496 99.651552 
L 188.498159 98.700927 
L 188.724823 99.150379 
L 188.951486 98.414014 
L 189.178149 98.788542 
L 189.404813 98.731794 
L 189.631476 98.421845 
L 190.084803 95.057269 
L 190.311466 95.226678 
L 190.53813 95.14117 
L 190.764793 94.54947 
L 190.991457 148.013013 
L 191.21812 86.727703 
L 191.444784 95.121613 
L 191.671447 92.511861 
L 191.89811 86.236736 
L 192.351437 93.632746 
L 192.804764 97.744444 
L 193.031427 98.034813 
L 193.258091 99.478736 
L 193.484754 99.777311 
L 193.938081 88.426798 
L 194.164745 85.553478 
L 194.618071 87.583094 
L 194.844735 87.639084 
L 195.071398 86.805601 
L 195.298062 85.374575 
L 195.524725 85.130347 
L 195.751388 86.026642 
L 195.978052 84.712713 
L 196.204715 84.84119 
L 196.431379 84.784861 
L 196.658042 84.247066 
L 196.884706 84.808789 
L 197.111369 84.906276 
L 197.338032 84.458723 
L 197.564696 82.754581 
L 197.791359 83.085257 
L 198.018023 83.752076 
L 198.244686 82.476557 
L 198.698013 83.443731 
L 199.15134 82.508811 
L 199.378003 82.998012 
L 199.604667 82.369959 
L 199.83133 82.749192 
L 200.284657 80.864182 
L 200.51132 80.489271 
L 200.737984 80.495875 
L 200.964647 79.735057 
L 201.19131 79.950621 
L 201.644637 80.570847 
L 201.871301 80.594406 
L 202.324628 80.933552 
L 202.551291 81.032177 
L 203.457945 82.374533 
L 203.684608 143.751046 
L 203.911271 80.499455 
L 204.137935 82.687405 
L 204.364598 86.598348 
L 204.591262 88.492544 
L 205.044589 95.797509 
L 205.724579 100.113769 
L 205.951242 97.543285 
L 206.177906 99.52423 
L 206.404569 94.925394 
L 206.631232 92.844549 
L 206.857896 92.952741 
L 207.311223 95.450382 
L 207.537886 95.60455 
L 208.217876 98.164273 
L 208.44454 95.555306 
L 209.12453 97.754548 
L 209.351193 98.725055 
L 209.577857 98.814196 
L 209.80452 98.356558 
L 210.031184 98.797767 
L 210.257847 97.245569 
L 210.484511 96.479496 
L 210.711174 97.194699 
L 210.937837 96.209933 
L 211.164501 96.180762 
L 211.391164 95.425641 
L 211.617828 95.888231 
L 211.844491 95.062525 
L 212.071154 95.145913 
L 212.297818 93.242219 
L 212.751145 93.722033 
L 212.977808 92.98533 
L 213.204472 92.739102 
L 213.431135 90.826156 
L 213.657798 89.927037 
L 214.337789 90.272218 
L 214.564452 90.059259 
L 214.791115 90.14894 
L 215.244442 90.735511 
L 215.697769 91.47632 
L 215.924433 90.329865 
L 216.151096 90.658424 
L 216.377759 128.383033 
L 216.604423 128.011831 
L 216.831086 104.651355 
L 217.05775 96.260892 
L 217.284413 96.189173 
L 217.511076 90.463024 
L 217.964403 96.377669 
L 218.191067 90.382084 
L 218.41773 91.533029 
L 218.871057 95.539784 
L 219.324384 97.943232 
L 219.777711 101.206927 
L 220.004374 100.274812 
L 220.684364 103.989227 
L 221.591018 107.241588 
L 221.817681 106.435858 
L 222.044345 106.104206 
L 222.497672 107.400777 
L 222.724335 107.160637 
L 222.950999 107.442376 
L 223.857652 110.25232 
L 224.084316 110.77815 
L 224.310979 110.857467 
L 225.444296 113.284058 
L 225.67096 113.206221 
L 226.35095 114.622681 
L 226.577613 115.098104 
L 226.804277 114.027113 
L 227.257603 114.553512 
L 227.484267 111.278608 
L 227.71093 111.70672 
L 227.937594 110.357038 
L 228.164257 110.421868 
L 228.390921 109.996797 
L 228.844247 110.663971 
L 229.070911 185.449639 
L 229.297574 117.076288 
L 229.524238 125.528972 
L 229.750901 127.407191 
L 230.204228 134.706487 
L 230.430891 105.904856 
L 231.110882 113.066695 
L 231.337545 109.689721 
L 232.017535 113.867936 
L 232.244199 110.348746 
L 232.470862 111.780432 
L 232.697525 110.705352 
L 232.924189 111.269836 
L 233.604179 114.1246 
L 233.830843 113.131899 
L 234.510833 115.865386 
L 234.737496 116.354363 
L 234.96416 113.065808 
L 235.190823 113.82256 
L 235.870813 114.36882 
L 236.097477 113.26002 
L 236.32414 113.983451 
L 236.777467 112.910681 
L 237.457457 114.456601 
L 237.910784 115.447798 
L 238.137447 115.942491 
L 238.364111 115.061083 
L 238.590774 115.334691 
L 238.817438 114.910799 
L 239.724091 116.717564 
L 240.404082 117.923608 
L 240.630745 118.27404 
L 240.857408 118.304266 
L 241.084072 118.034795 
L 241.310735 118.415884 
L 241.537399 117.70176 
L 241.764062 113.694197 
L 241.990726 129.445711 
L 242.670716 144.285453 
L 242.897379 124.080364 
L 243.350706 129.988426 
L 244.25736 137.521375 
L 244.484023 136.891332 
L 244.710687 137.235201 
L 244.93735 138.174489 
L 245.61734 142.069018 
L 246.29733 144.67913 
L 246.750657 146.642571 
L 246.977321 141.322428 
L 247.657311 143.642854 
L 248.563965 146.182751 
L 249.017291 145.539661 
L 249.923945 147.833077 
L 250.830599 149.916347 
L 251.057262 148.557673 
L 252.190579 151.004317 
L 252.417243 146.892423 
L 253.55056 149.064236 
L 253.777223 149.266275 
L 254.23055 150.046481 
L 254.457213 223.570077 
L 254.683877 216.265731 
L 254.91054 174.375651 
L 255.137204 177.507 
L 255.590531 150.068283 
L 256.270521 159.097201 
L 256.723848 163.268967 
L 256.950511 153.349198 
L 257.630501 157.960218 
L 258.763818 164.049967 
L 260.350462 170.079839 
L 260.577126 159.457367 
L 261.483779 162.457163 
L 262.16377 163.837083 
L 262.390433 164.433769 
L 262.617096 164.298102 
L 263.52375 166.432402 
L 264.430404 168.389302 
L 264.657067 168.846362 
L 264.883731 169.027829 
L 266.470375 171.439306 
L 266.923701 172.139687 
L 267.150365 229.404883 
L 267.603692 216.766679 
L 267.830355 216.599381 
L 268.057018 217.649713 
L 268.283682 212.916613 
L 268.510345 216.101037 
L 268.737009 217.015856 
L 268.963672 218.441858 
L 269.190336 218.980218 
L 269.416999 218.202119 
L 270.096989 220.554179 
L 270.323653 219.783318 
L 270.776979 222.033188 
L 271.003643 223.083619 
L 271.230306 222.439263 
L 271.45697 220.810024 
L 271.683633 220.169342 
L 272.13696 217.28333 
L 272.590287 218.152718 
L 272.81695 219.078035 
L 273.043614 219.507078 
L 273.270277 219.169425 
L 273.496941 219.777676 
L 273.723604 219.92718 
L 273.950267 219.512869 
L 274.176931 206.948218 
L 274.403594 206.757008 
L 274.856921 207.687845 
L 275.083584 208.222316 
L 275.310248 208.404321 
L 275.763575 208.571846 
L 275.990238 208.800646 
L 276.443565 209.822837 
L 276.670228 209.857465 
L 276.896892 208.129631 
L 277.123555 208.279499 
L 277.350219 188.176811 
L 277.576882 188.328828 
L 278.483536 189.905876 
L 278.936863 190.621873 
L 279.390189 187.05356 
L 279.616853 187.488295 
L 279.843516 241.770835 
L 280.07018 237.578606 
L 280.296843 245.596185 
L 280.523506 146.935356 
L 280.976833 156.957183 
L 281.43016 164.090371 
L 282.336814 172.327846 
L 282.563477 172.234305 
L 283.016804 174.335135 
L 283.243467 172.890824 
L 284.376785 177.891567 
L 284.603448 178.42995 
L 285.510102 182.01595 
L 286.643419 186.148594 
L 286.870082 184.125673 
L 287.550072 186.216046 
L 288.003399 186.856663 
L 288.230063 187.47217 
L 288.456726 187.764999 
L 290.950024 192.974431 
L 292.083341 194.419043 
L 292.310004 194.790924 
L 292.536668 235.561629 
L 292.763331 235.191864 
L 292.989994 183.980564 
L 293.443321 192.795276 
L 294.123311 201.707964 
L 295.029965 209.940934 
L 295.256629 210.436459 
L 295.483292 175.011791 
L 295.709955 175.209432 
L 297.296599 183.771152 
L 297.97659 186.54173 
L 298.203253 186.984696 
L 298.65658 188.41724 
L 299.563233 191.35403 
L 300.243224 193.259532 
L 301.376541 195.744618 
L 301.603204 196.064533 
L 302.509858 198.060374 
L 303.189848 199.172326 
L 303.416512 199.397498 
L 303.643175 198.333908 
L 304.096502 199.155955 
L 304.323165 198.645752 
L 305.003155 199.444098 
L 305.229819 237.313904 
L 305.456482 235.019753 
L 305.683146 241.967564 
L 305.909809 245.156678 
L 306.136473 222.348016 
L 306.363136 225.344287 
L 306.589799 224.38149 
L 306.816463 225.204309 
L 307.043126 226.742769 
L 307.26979 179.113536 
L 307.94978 185.357295 
L 308.176443 186.186913 
L 309.083097 191.971974 
L 309.30976 192.874321 
L 309.536424 190.492392 
L 310.216414 193.548277 
L 310.443077 193.814361 
L 312.483048 200.14754 
L 313.389702 202.246053 
L 313.616365 202.592298 
L 314.523019 204.640349 
L 314.749682 204.904893 
L 315.203009 205.869417 
L 315.429673 206.080492 
L 315.656336 206.58655 
L 315.882999 206.742627 
L 316.336326 207.481009 
L 316.789653 208.196257 
L 317.696307 209.504012 
L 317.696307 209.504012 
" clip-path="url(#p53fa2e6d6f)" style="fill: none; stroke: #000000; stroke-width: 1.5; stroke-linecap: square"/>
   </g>
   <g id="patch_3">
    <path d="M 51.378125 284.4 
L 51.378125 7.2 
" style="fill: none; stroke: #000000; stroke-width: 0.8; stroke-linejoin: miter; stroke-linecap: square"/>
   </g>
   <g id="patch_4">
    <path d="M 330.378125 284.4 
L 330.378125 7.2 
" style="fill: none; stroke: #000000; stroke-width: 0.8; stroke-linejoin: miter; stroke-linecap: square"/>
   </g>
   <g id="patch_5">
    <path d="M 51.378125 284.4 
L 330.378125 284.4 
" style="fill: none; stroke: #000000; stroke-width: 0.8; stroke-linejoin: miter; stroke-linecap: square"/>
   </g>
   <g id="patch_6">
    <path d="M 51.378125 7.2 
L 330.378125 7.2 
" style="fill: none; stroke: #000000; stroke-width: 0.8; stroke-linejoin: miter; stroke-linecap: square"/>
   </g>
   <g id="legend_1">
    <g id="patch_7">
     <path d="M 176.657813 44.55625 
L 323.378125 44.55625 
Q 325.378125 44.55625 325.378125 42.55625 
L 325.378125 14.2 
Q 325.378125 12.2 323.378125 12.2 
L 176.657813 12.2 
Q 174.657813 12.2 174.657813 14.2 
L 174.657813 42.55625 
Q 174.657813 44.55625 176.657813 44.55625 
z
" style="fill: #ffffff; opacity: 0.8; stroke: #cccccc; stroke-linejoin: miter"/>
    </g>
    <g id="line2d_52">
     <path d="M 178.657813 20.298437 
L 188.657813 20.298437 
L 198.657813 20.298437 
" style="fill: none; stroke-dasharray: 5.55,2.4; stroke-dashoffset: 0; stroke: #000000; stroke-width: 1.5"/>
    </g>
    <g id="text_14">
     <!-- optimal initial bias -->
     <g transform="translate(206.657813 23.798437) scale(0.1 -0.1)">
      <defs>
       <path id="DejaVuSans-69" d="M 603 3500 
L 1178 3500 
L 1178 0 
L 603 0 
L 603 3500 
z
M 603 4863 
L 1178 4863 
L 1178 4134 
L 603 4134 
L 603 4863 
z
" transform="scale(0.015625)"/>
       <path id="DejaVuSans-6d" d="M 3328 2828 
Q 3544 3216 3844 3400 
Q 4144 3584 4550 3584 
Q 5097 3584 5394 3201 
Q 5691 2819 5691 2113 
L 5691 0 
L 5113 0 
L 5113 2094 
Q 5113 2597 4934 2840 
Q 4756 3084 4391 3084 
Q 3944 3084 3684 2787 
Q 3425 2491 3425 1978 
L 3425 0 
L 2847 0 
L 2847 2094 
Q 2847 2600 2669 2842 
Q 2491 3084 2119 3084 
Q 1678 3084 1418 2786 
Q 1159 2488 1159 1978 
L 1159 0 
L 581 0 
L 581 3500 
L 1159 3500 
L 1159 2956 
Q 1356 3278 1631 3431 
Q 1906 3584 2284 3584 
Q 2666 3584 2933 3390 
Q 3200 3197 3328 2828 
z
" transform="scale(0.015625)"/>
       <path id="DejaVuSans-61" d="M 2194 1759 
Q 1497 1759 1228 1600 
Q 959 1441 959 1056 
Q 959 750 1161 570 
Q 1363 391 1709 391 
Q 2188 391 2477 730 
Q 2766 1069 2766 1631 
L 2766 1759 
L 2194 1759 
z
M 3341 1997 
L 3341 0 
L 2766 0 
L 2766 531 
Q 2569 213 2275 61 
Q 1981 -91 1556 -91 
Q 1019 -91 701 211 
Q 384 513 384 1019 
Q 384 1609 779 1909 
Q 1175 2209 1959 2209 
L 2766 2209 
L 2766 2266 
Q 2766 2663 2505 2880 
Q 2244 3097 1772 3097 
Q 1472 3097 1187 3025 
Q 903 2953 641 2809 
L 641 3341 
Q 956 3463 1253 3523 
Q 1550 3584 1831 3584 
Q 2591 3584 2966 3190 
Q 3341 2797 3341 1997 
z
" transform="scale(0.015625)"/>
       <path id="DejaVuSans-6c" d="M 603 4863 
L 1178 4863 
L 1178 0 
L 603 0 
L 603 4863 
z
" transform="scale(0.015625)"/>
       <path id="DejaVuSans-20" transform="scale(0.015625)"/>
       <path id="DejaVuSans-6e" d="M 3513 2113 
L 3513 0 
L 2938 0 
L 2938 2094 
Q 2938 2591 2744 2837 
Q 2550 3084 2163 3084 
Q 1697 3084 1428 2787 
Q 1159 2491 1159 1978 
L 1159 0 
L 581 0 
L 581 3500 
L 1159 3500 
L 1159 2956 
Q 1366 3272 1645 3428 
Q 1925 3584 2291 3584 
Q 2894 3584 3203 3211 
Q 3513 2838 3513 2113 
z
" transform="scale(0.015625)"/>
       <path id="DejaVuSans-62" d="M 3116 1747 
Q 3116 2381 2855 2742 
Q 2594 3103 2138 3103 
Q 1681 3103 1420 2742 
Q 1159 2381 1159 1747 
Q 1159 1113 1420 752 
Q 1681 391 2138 391 
Q 2594 391 2855 752 
Q 3116 1113 3116 1747 
z
M 1159 2969 
Q 1341 3281 1617 3432 
Q 1894 3584 2278 3584 
Q 2916 3584 3314 3078 
Q 3713 2572 3713 1747 
Q 3713 922 3314 415 
Q 2916 -91 2278 -91 
Q 1894 -91 1617 61 
Q 1341 213 1159 525 
L 1159 0 
L 581 0 
L 581 4863 
L 1159 4863 
L 1159 2969 
z
" transform="scale(0.015625)"/>
      </defs>
      <use xlink:href="#DejaVuSans-6f"/>
      <use xlink:href="#DejaVuSans-70" x="61.181641"/>
      <use xlink:href="#DejaVuSans-74" x="124.658203"/>
      <use xlink:href="#DejaVuSans-69" x="163.867188"/>
      <use xlink:href="#DejaVuSans-6d" x="191.650391"/>
      <use xlink:href="#DejaVuSans-61" x="289.0625"/>
      <use xlink:href="#DejaVuSans-6c" x="350.341797"/>
      <use xlink:href="#DejaVuSans-20" x="378.125"/>
      <use xlink:href="#DejaVuSans-69" x="409.912109"/>
      <use xlink:href="#DejaVuSans-6e" x="437.695312"/>
      <use xlink:href="#DejaVuSans-69" x="501.074219"/>
      <use xlink:href="#DejaVuSans-74" x="528.857422"/>
      <use xlink:href="#DejaVuSans-69" x="568.066406"/>
      <use xlink:href="#DejaVuSans-61" x="595.849609"/>
      <use xlink:href="#DejaVuSans-6c" x="657.128906"/>
      <use xlink:href="#DejaVuSans-20" x="684.912109"/>
      <use xlink:href="#DejaVuSans-62" x="716.699219"/>
      <use xlink:href="#DejaVuSans-69" x="780.175781"/>
      <use xlink:href="#DejaVuSans-61" x="807.958984"/>
      <use xlink:href="#DejaVuSans-73" x="869.238281"/>
     </g>
    </g>
    <g id="line2d_53">
     <path d="M 178.657813 34.976562 
L 188.657813 34.976562 
L 198.657813 34.976562 
" style="fill: none; stroke: #000000; stroke-width: 1.5; stroke-linecap: square"/>
    </g>
    <g id="text_15">
     <!-- non-optimal initial bias -->
     <g transform="translate(206.657813 38.476562) scale(0.1 -0.1)">
      <defs>
       <path id="DejaVuSans-2d" d="M 313 2009 
L 1997 2009 
L 1997 1497 
L 313 1497 
L 313 2009 
z
" transform="scale(0.015625)"/>
      </defs>
      <use xlink:href="#DejaVuSans-6e"/>
      <use xlink:href="#DejaVuSans-6f" x="63.378906"/>
      <use xlink:href="#DejaVuSans-6e" x="124.560547"/>
      <use xlink:href="#DejaVuSans-2d" x="187.939453"/>
      <use xlink:href="#DejaVuSans-6f" x="225.898438"/>
      <use xlink:href="#DejaVuSans-70" x="287.080078"/>
      <use xlink:href="#DejaVuSans-74" x="350.556641"/>
      <use xlink:href="#DejaVuSans-69" x="389.765625"/>
      <use xlink:href="#DejaVuSans-6d" x="417.548828"/>
      <use xlink:href="#DejaVuSans-61" x="514.960938"/>
      <use xlink:href="#DejaVuSans-6c" x="576.240234"/>
      <use xlink:href="#DejaVuSans-20" x="604.023438"/>
      <use xlink:href="#DejaVuSans-69" x="635.810547"/>
      <use xlink:href="#DejaVuSans-6e" x="663.59375"/>
      <use xlink:href="#DejaVuSans-69" x="726.972656"/>
      <use xlink:href="#DejaVuSans-74" x="754.755859"/>
      <use xlink:href="#DejaVuSans-69" x="793.964844"/>
      <use xlink:href="#DejaVuSans-61" x="821.748047"/>
      <use xlink:href="#DejaVuSans-6c" x="883.027344"/>
      <use xlink:href="#DejaVuSans-20" x="910.810547"/>
      <use xlink:href="#DejaVuSans-62" x="942.597656"/>
      <use xlink:href="#DejaVuSans-69" x="1006.074219"/>
      <use xlink:href="#DejaVuSans-61" x="1033.857422"/>
      <use xlink:href="#DejaVuSans-73" x="1095.136719"/>
     </g>
    </g>
   </g>
  </g>
 </g>
 <defs>
  <clipPath id="p53fa2e6d6f">
   <rect x="51.378125" y="7.2" width="279" height="277.2"/>
  </clipPath>
 </defs>
</svg>
